<?xml version="1.0" encoding="UTF-8" standalone="no"?>
<svg
   id="Layer_1"
   width="1000.8"
   height="1300"
   x="0"
   y="0"
   version="1.1"
   viewBox="0 0 1000.8 1300"
   xml:space="preserve"
   xmlns="http://www.w3.org/2000/svg"
   xmlns:svg="http://www.w3.org/2000/svg"><defs
     id="defs1"><filter
       id="filter3994"
       color-interpolation-filters="sRGB"
       y="-0.059999999"
       height="1.12"
       x="-inf"
       width="inf"><feGaussianBlur
         stdDeviation="0.95"
         id="feGaussianBlur3996" /></filter><filter
       id="filter3994-1"
       color-interpolation-filters="sRGB"
       y="-0.059999999"
       height="1.12"
       x="-inf"
       width="inf"><feGaussianBlur
         stdDeviation="0.95"
         id="feGaussianBlur3996-5" /></filter></defs><metadata
     id="metadata85" /><g
     id="left"
     transform="matrix(8.7009658,0,0,8.7009658,119.872,-3.6543895e-8)"><path
       id="path4182"
       d="m 33.122745,22.256318 v 1.601973 c 0,0.13798 -0.164307,0.292312 -0.292312,0.292312 h -5.133234 c -0.161131,0 -0.356659,-0.160814 -0.356659,-0.356632 V 22.24465 Z"
       style="fill:#44484c;fill-opacity:1;stroke:#000000;stroke-width:0.264583px;stroke-linecap:butt;stroke-linejoin:miter;stroke-opacity:1" /><path
       id="path4186"
       d="m 23.902465,22.949553 c 0,0.04675 0,1.145911 0,1.145911 0,0.478393 0.291942,0.666512 0.666512,0.666512 2.017951,0.177932 4.469606,0.167507 6.536399,0 0.347319,0 0.687917,-0.3302 0.684054,-0.684054 v -1.397318 h -7.886965 z"
       style="fill:#44484c;fill-opacity:1;stroke:#000000;stroke-width:0.264583px;stroke-linecap:butt;stroke-linejoin:miter;stroke-opacity:1" /><path
       id="path4190"
       d="m 7.3451308,22.949553 c 0,0.04675 0,1.145911 0,1.145911 0,0.478393 0.291941,0.666512 0.666485,0.666512 2.0179782,0.177932 4.4696072,0.167507 6.5364262,0 0.347319,0 0.687917,-0.3302 0.684027,-0.684054 V 22.680604 H 7.3451308 Z"
       style="fill:#44484c;fill-opacity:1;stroke:#000000;stroke-width:0.264583px;stroke-linecap:butt;stroke-linejoin:miter;stroke-opacity:1" /><path
       id="path3828"
       d="m 39.503431,63.613187 h -1.110837 v 9.132265 h 1.08745 c 0.379812,0 0.572961,-0.264917 0.572961,-0.572958 v -8.079893 c 0,-0.292343 -0.213908,-0.479414 -0.549574,-0.479414 z"
       style="fill:#00bbdb;fill-opacity:1;stroke:#000000;stroke-width:0.264583px;stroke-linecap:butt;stroke-linejoin:miter;stroke-opacity:1" /><path
       style="fill:#00bbdb;fill-opacity:1;stroke:#000000;stroke-width:0.264583px;stroke-linecap:butt;stroke-linejoin:miter;stroke-opacity:1"
       d="m 39.503431,117.52619 h -1.110837 v -9.13226 h 1.08745 c 0.379812,0 0.572961,0.26491 0.572961,0.57295 v 8.0799 c 0,0.29234 -0.213908,0.47941 -0.549574,0.47941 z"
       id="path3830" /><path
       id="path3826"
       d="m 39.643747,44.647073 h -3.706693 v 88.793887 h 1.734386 v 3.68763 c 0,0.41206 0.346123,1.10727 0.639284,1.10727 h 1.291346 c 0.23689,0 0.450287,-0.18294 0.450287,-0.45028 v -17.26235 c 0,-2.28046 -1.425903,-2.30845 -1.425903,-3.0285 v -9.15565 c 0,-0.64968 1.391472,-0.80953 1.391472,-2.66601 V 75.364695 c 0,-1.840243 -1.391472,-1.964013 -1.391472,-2.666016 l 0.03307,-9.003641 c 0,-0.620152 1.391473,-1.097836 1.391473,-2.747865 l -7.93e-4,-15.823609 c 0.0024,-0.259744 -0.125479,-0.476491 -0.406334,-0.476491 z"
       style="fill:#44484c;fill-opacity:1;stroke:#000000;stroke-width:0.264583px;stroke-linecap:butt;stroke-linejoin:miter;stroke-opacity:1" /><path
       id="path3832"
       d="m 30.154591,38.984701 v -1.107942 c 0,-0.332553 -0.339662,-0.7028 -0.7028,-0.7028 h -6.945312 c -10.713919,0 -20.3040802,8.641797 -21.9475795,14.775418 -0.07498,0.279813 -0.101862,0.841899 0.385869,0.841899 h 1.2336173 z"
       style="fill:#44484c;fill-opacity:1;stroke:#000000;stroke-width:0.264583px;stroke-linecap:butt;stroke-linejoin:miter;stroke-opacity:1" /><path
       id="path3925"
       d="m 36.251186,39.39185 v 109.19024 c 0,0.2708 -0.133853,0.47543 -0.475422,0.47543 H 22.641681 c -13.6735372,0 -22.5093895,-12.09084 -22.5093895,-22.50939 V 60.947123 c 0,-15.315427 15.0189105,-22.415219 22.4152215,-22.415219 h 12.909171 c 0.657781,0 0.794502,0.361942 0.794502,0.859946 z"
       style="fill:#00bbdb;fill-opacity:1;stroke:#000000;stroke-width:0.264583px;stroke-linecap:butt;stroke-linejoin:miter;stroke-opacity:1" /><circle
       id="path3871"
       style="fill:#44484c;fill-opacity:1;stroke:#000000;stroke-width:0.264583;stroke-linecap:round;stroke-linejoin:round;stroke-miterlimit:4;stroke-dasharray:none;stroke-opacity:1"
       cx="19.236444"
       cy="90.101624"
       r="4.0085444" /><circle
       style="fill:#44484c;fill-opacity:1;stroke:#000000;stroke-width:0.264583;stroke-linecap:round;stroke-linejoin:round;stroke-miterlimit:4;stroke-dasharray:none;stroke-opacity:1"
       id="path3873"
       cx="19.236444"
       cy="106.67232"
       r="4.0085444" /><circle
       style="fill:#44484c;fill-opacity:1;stroke:#000000;stroke-width:0.264583;stroke-linecap:round;stroke-linejoin:round;stroke-miterlimit:4;stroke-dasharray:none;stroke-opacity:1"
       id="path3875"
       transform="rotate(90)"
       cx="98.386986"
       cy="-10.951083"
       r="4.0085444" /><circle
       transform="rotate(90)"
       id="path3877"
       style="fill:#44484c;fill-opacity:1;stroke:#000000;stroke-width:0.264583;stroke-linecap:round;stroke-linejoin:round;stroke-miterlimit:4;stroke-dasharray:none;stroke-opacity:1"
       cx="98.386986"
       cy="-27.521791"
       r="4.0085444" /><rect
       style="fill-opacity:1;stroke:#000000;stroke-width:0.264583;stroke-linecap:round;stroke-linejoin:round;stroke-miterlimit:4;stroke-dasharray:none;stroke-opacity:1"
       id="Back"
       width="5.8704429"
       height="1.6867187"
       x="27.454165"
       y="48.675072"
       class="button" /><circle
       id="path3907-1"
       style="fill-opacity:1;stroke:#000000;stroke-width:0.264583;stroke-linecap:round;stroke-linejoin:round;stroke-miterlimit:4;stroke-dasharray:none;stroke-opacity:1"
       cx="19.268621"
       cy="67.195892"
       r="8.4832029" /><g
       id="LeftStick"
       class="button"
       style="display:inline"><circle
         id="path3907"
         style="fill-opacity:1;stroke:#000000;stroke-width:0.264583;stroke-linecap:round;stroke-linejoin:round;stroke-miterlimit:4;stroke-dasharray:none;stroke-opacity:1"
         cx="19.268621"
         cy="67.195892"
         r="8.4832029" /><circle
         style="fill-opacity:1;stroke:#000000;stroke-width:0.264583;stroke-linecap:round;stroke-linejoin:round;stroke-miterlimit:4;stroke-dasharray:none;stroke-opacity:1"
         id="path3909"
         cx="19.268621"
         cy="67.254738"
         r="5.9489326" /><path
         id="path3911"
         d="m 18.961234,60.286636 c 5.3e-5,-0.567529 0.0016,-0.902846 0.0042,-0.920872 0.0079,-0.0547 0.03481,-0.106976 0.07652,-0.148682 0.12573,-0.12573 0.339551,-0.08842 0.417084,0.07277 0.02906,0.06043 0.02704,-0.01283 0.02711,0.983676 l 6.1e-5,0.900091 -0.185587,-2.17e-4 c -0.102071,-1.19e-4 -0.220205,0.0011 -0.262517,0.0028 l -0.07693,0.003 7.9e-5,-0.892521 z"
         style="fill:#000000;stroke:#000000;stroke-width:0.00826823;stroke-linecap:round;stroke-linejoin:round;stroke-miterlimit:4;stroke-dasharray:none;stroke-opacity:1" /><path
         id="path3913"
         d="m 19.194179,75.214639 c -0.103042,-0.01154 -0.191744,-0.08817 -0.224182,-0.193662 -0.0065,-0.02098 -0.0071,-0.08735 -0.0082,-0.857049 l -0.0013,-0.83431 0.06106,0.0034 c 0.03359,0.0019 0.151787,0.0034 0.262666,0.0034 h 0.201596 l -0.0011,0.835091 -0.0011,0.835091 -0.0092,0.02687 c -0.02764,0.08078 -0.09145,0.144222 -0.172333,0.171315 -0.02641,0.0088 -0.07656,0.01347 -0.107987,0.0099 v 0 z"
         style="fill:#000000;fill-opacity:1;stroke:#000000;stroke-width:0.00826823;stroke-linecap:round;stroke-linejoin:round;stroke-miterlimit:4;stroke-dasharray:none;stroke-opacity:1" /><path
         id="path3915"
         d="m 25.349998,67.27271 c 0,-0.09385 -0.0016,-0.212042 -0.0034,-0.262662 l -0.0034,-0.09203 0.854977,0.0011 0.854977,0.0011 0.03032,0.01109 c 0.114072,0.04167 0.18497,0.146846 0.177263,0.262977 -0.0043,0.06436 -0.02954,0.121094 -0.07432,0.166859 -0.03514,0.03591 -0.06816,0.05496 -0.129127,0.07451 -0.01318,0.0042 -0.188249,0.0056 -0.861963,0.0065 l -0.845428,0.0013 v -0.170629 0 z"
         style="fill:#000000;fill-opacity:1;stroke:#000000;stroke-width:0.00826823;stroke-linecap:round;stroke-linejoin:round;stroke-miterlimit:4;stroke-dasharray:none;stroke-opacity:1" /><path
         id="path3917"
         d="m 11.413899,67.438823 c -0.0569,-0.0075 -0.112456,-0.03622 -0.152974,-0.07906 -0.140957,-0.149016 -0.06985,-0.386953 0.130236,-0.435806 0.01865,-0.0046 0.182329,-0.0056 0.912762,-0.0057 l 0.890024,-1.49e-4 -0.0033,0.08785 c -0.0019,0.04832 -0.0033,0.166452 -0.0033,0.26252 v 0.174667 l -0.874363,-5.29e-4 c -0.480901,-2.65e-4 -0.885529,-0.0021 -0.899171,-0.0038 z"
         style="fill:#000000;fill-opacity:1;stroke:#000000;stroke-width:0.00826823;stroke-linecap:round;stroke-linejoin:round;stroke-miterlimit:4;stroke-dasharray:none;stroke-opacity:1" /></g><rect
       style="fill:#44484c;fill-opacity:1;stroke:#000000;stroke-width:0.264583;stroke-linecap:round;stroke-linejoin:round;stroke-miterlimit:4;stroke-dasharray:none;stroke-opacity:1"
       id="rect3919"
       width="6.8130207"
       height="6.647656"
       x="21.930986"
       y="116.11076"
       ry="0.89296871" /><circle
       style="fill:#000000;stroke:#000000;stroke-width:0.264583;stroke-linecap:round;stroke-linejoin:round;stroke-miterlimit:4;stroke-dasharray:none;stroke-opacity:1"
       id="path3921"
       cx="25.312696"
       cy="119.49245"
       r="2.3399088" /><g
       id="dpad"><path
         style="stroke:#000000;stroke-width:0.904694;stroke-linecap:round;stroke-linejoin:round;stroke-miterlimit:4;stroke-dasharray:none;stroke-opacity:1"
         id="DpadRight"
         d="m 134.97306,862.5577 0,-11.46794 9.93153,5.73397 z"
         transform="matrix(0.29245602,0,0,0.29245602,-13.019911,-152.18812)" /><path
         transform="matrix(-0.29245602,0,0,0.29245602,51.534858,-152.18812)"
         d="m 134.97306,862.5577 0,-11.46794 9.93153,5.73397 z"
         id="DpadLeft"
         style="stroke:#000000;stroke-width:0.904694;stroke-linecap:round;stroke-linejoin:round;stroke-miterlimit:4;stroke-dasharray:none;stroke-opacity:1" /><path
         transform="matrix(0,-0.29245602,0.29245602,0,-231.35192,130.71823)"
         d="m 134.97306,862.5577 0,-11.46794 9.93153,5.73397 z"
         id="DpadUp"
         style="stroke:#000000;stroke-width:0.904694;stroke-linecap:round;stroke-linejoin:round;stroke-miterlimit:4;stroke-dasharray:none;stroke-opacity:1" /><path
         style="stroke:#000000;stroke-width:0.904694;stroke-linecap:round;stroke-linejoin:round;stroke-miterlimit:4;stroke-dasharray:none;stroke-opacity:1"
         id="DpadDown"
         d="m 134.97306,862.5577 0,-11.46794 9.93153,5.73397 z"
         transform="matrix(0,0.29245602,0.29245602,0,-231.35192,66.16345)" /></g><path
       id="path4046"
       d="m 63.771731,94.018495 c -0.04677,0 -1.145916,0 -1.145916,0 -0.478388,0 -0.666504,-0.29194 -0.666504,-0.66651 -0.177953,-2.01795 -0.167505,-4.469602 0,-6.536416 0,-0.34731 0.330195,-0.687918 0.684043,-0.684039 h 1.397318 v 7.886965 z"
       style="fill:#44484c;fill-opacity:1;stroke:#000000;stroke-width:0.264583px;stroke-linecap:butt;stroke-linejoin:miter;stroke-opacity:1" /><path
       style="fill:#44484c;fill-opacity:1;stroke:#000000;stroke-width:0.264583px;stroke-linecap:butt;stroke-linejoin:miter;stroke-opacity:1"
       d="m 63.771731,102.29717 c -0.04677,0 -1.145916,0 -1.145916,0 -0.478388,0 -0.666504,-0.29194 -0.666504,-0.6665 -0.177953,-2.017963 -0.167505,-4.469615 0,-6.536415 0,-0.34732 0.330195,-0.68793 0.684043,-0.68405 h 1.397318 v 7.886965 z"
       id="path4048" /><path
       id="path4000"
       d="m 75.761211,40.180332 c 2.66361,0 6.929524,2.444663 10.289879,2.759557 0.71167,0 1.19269,0.71711 1.19269,1.262848 v 2.38538 c 0,0.791848 -1.14592,1.389081 -1.14592,2.081363 h -8.956871 z"
       style="fill:#44484c;fill-opacity:1;stroke:#000000;stroke-width:0.264583px;stroke-linecap:butt;stroke-linejoin:miter;stroke-opacity:1" /><path
       id="path4002"
       d="m 78.916187,62.68351 c 0,-5.087943 6.223703,-8.710414 8.301303,-13.411065 0.12093,-0.451335 -0.23601,-0.975651 -0.678,-0.975651 h -2.629293 c -4.062013,0 -3.225233,-4.668785 -5.936588,-6.746875 v 21.139517 z"
       style="fill:#00bbdb;fill-opacity:1;stroke:#000000;stroke-width:0.264583px;stroke-linecap:butt;stroke-linejoin:miter;stroke-opacity:1" /><path
       id="path4004"
       d="m 80.619442,54.481429 h -1.852083 v -4.960938 h 1.885156 c 0.243705,0 0.353693,0.213125 0.405143,0.405144 0.371227,1.385437 0.352412,2.876767 0,4.191992 -0.05556,0.207356 -0.194738,0.363802 -0.438216,0.363802 z"
       style="fill:#44484c;fill-opacity:1;stroke:#000000;stroke-width:0.264583px;stroke-linecap:butt;stroke-linejoin:miter;stroke-opacity:1" /><path
       id="path4006"
       d="m 87.20095,46.246273 c -4.955503,0 -5.858031,-1.554427 -7.17682,-1.554427"
       style="fill:none;stroke:#000000;stroke-width:0.264583px;stroke-linecap:butt;stroke-linejoin:miter;stroke-opacity:1" /><path
       id="path4008"
       d="m 72.381923,39.022719 c 0,0 -5.575442,-0.03565 -5.565888,0 0.0096,0.03565 0,-1.110837 0,-1.110837 0,-0.29836 0.221101,-0.491109 0.491106,-0.491109 h 4.548595 c 0.321982,0 0.526187,0.287943 0.526187,0.526187 z"
       style="fill:#44484c;fill-opacity:1;stroke:#000000;stroke-width:0.264583px;stroke-linecap:butt;stroke-linejoin:miter;stroke-opacity:1" /><path
       id="path4036"
       d="m 63.776512,62.176195 c -0.740701,0.206184 -2.124943,1.629344 -2.447311,3.050632 -0.421434,0 -1.005602,-0.247509 -1.005602,-0.760047 v -4.887693 c 0,-1.029377 -3.348204,-0.770353 -3.348204,0.897149 v 1.687013 c -1.440344,3.504932 -1.469731,6.635117 0,10.056016 v 1.777344 c 0,1.5485 3.317637,1.867318 3.317637,0.888957 v -4.794435 c 0,-0.695261 0.486277,-1.020768 0.979958,-0.979958 0.516763,1.247886 1.193901,2.362125 2.453283,2.991162 h 0.467722 V 62.17202 Z"
       style="fill:#44484c;fill-opacity:1;stroke:#000000;stroke-width:0.264583px;stroke-linecap:butt;stroke-linejoin:miter;stroke-opacity:1" /><rect
       ry="0.26458332"
       y="116.11076"
       x="62.155056"
       height="6.647656"
       width="6.8130207"
       id="rect4044"
       style="fill:#44484c;fill-opacity:1;stroke:#000000;stroke-width:0.264583;stroke-linecap:round;stroke-linejoin:round;stroke-miterlimit:4;stroke-dasharray:none;stroke-opacity:1"
       rx="0.26458332" /><path
       id="path4050"
       d="m 63.771731,110.57584 c -0.04677,0 -1.145916,0 -1.145916,0 -0.478388,0 -0.666504,-0.29194 -0.666504,-0.6665 -0.177953,-2.01796 -0.167505,-4.46961 0,-6.53641 0,-0.34731 0.330195,-0.68792 0.684043,-0.68404 h 1.397318 v 7.88695 z"
       style="fill:#44484c;fill-opacity:1;stroke:#000000;stroke-width:0.264583px;stroke-linecap:butt;stroke-linejoin:miter;stroke-opacity:1" /><rect
       y="48.675072"
       x="62.34621"
       height="1.6867187"
       width="5.8704429"
       id="rect4052"
       style="fill:#44484c;fill-opacity:1;stroke:#000000;stroke-width:0.264583;stroke-linecap:round;stroke-linejoin:round;stroke-miterlimit:4;stroke-dasharray:none;stroke-opacity:1"
       rx="0.25724691"
       ry="0.25724691" /><path
       id="path4010"
       d="m 73.258901,38.730394 h -5.713257 c -2.190945,0 -3.68795,2.151269 -3.68795,4.115951 V 145.23063 c 0,2.30569 1.843881,4.04578 4.045794,4.04578 h 5.168323 c 3.238691,0 6.06869,-3.32049 6.06869,-6.06868 V 44.623686 c 0,-2.970212 -3.405764,-5.893292 -5.8816,-5.893292 z"
       style="fill:#00bbdb;fill-opacity:1;stroke:#000000;stroke-width:0.264583px;stroke-linecap:butt;stroke-linejoin:miter;stroke-opacity:1" /><rect
       ry="1.1287988"
       rx="1.1287988"
       y="44.664803"
       x="-76.537956"
       height="93.491112"
       width="10.22559"
       id="rect4012"
       style="fill:#44484c;fill-opacity:1;stroke:#000000;stroke-width:0.264583;stroke-miterlimit:4;stroke-dasharray:none;stroke-opacity:1"
       transform="scale(-1,1)" /><rect
       ry="1.1287988"
       rx="1.1287988"
       y="120.92493"
       x="-75.426994"
       height="16.172655"
       width="7.9375"
       id="rect4014"
       style="fill:#2e2f31;fill-opacity:1;stroke:#000000;stroke-width:0.264583;stroke-linecap:round;stroke-linejoin:round;stroke-miterlimit:4;stroke-dasharray:none;stroke-opacity:1"
       transform="scale(-1,1)" /><path
       transform="matrix(-0.29141287,0,0,0.29141287,93.622165,249.09704)"
       d="m 76,-387.61176 -8.184578,-14.17611 16.369155,0 z"
       id="path4016"
       style="fill:#44484c;fill-opacity:1;stroke:#000000;stroke-width:1;stroke-linecap:round;stroke-linejoin:round;stroke-miterlimit:4;stroke-dasharray:none;stroke-opacity:1" /><path
       style="fill:#44484c;fill-opacity:1;stroke:#000000;stroke-width:1;stroke-linecap:round;stroke-linejoin:round;stroke-miterlimit:4;stroke-dasharray:none;stroke-opacity:1"
       id="path4018"
       d="m 76,-387.61176 -8.184578,-14.17611 16.369155,0 z"
       transform="matrix(-0.29141287,0,0,0.29141287,93.622165,244.15264)" /><path
       transform="matrix(-0.29141287,0,0,0.29141287,93.622165,239.20824)"
       d="m 76,-387.61176 -8.184578,-14.17611 16.369155,0 z"
       id="path4020"
       style="fill:#44484c;fill-opacity:1;stroke:#000000;stroke-width:1;stroke-linecap:round;stroke-linejoin:round;stroke-miterlimit:4;stroke-dasharray:none;stroke-opacity:1" /><rect
       ry="0.53348637"
       rx="0.53348637"
       y="79.881424"
       x="-72.450432"
       height="1.9513021"
       width="1.9513021"
       id="rect4022"
       style="fill:#aaeeff;stroke:#000000;stroke-width:0.264583;stroke-linecap:round;stroke-linejoin:round;stroke-miterlimit:4;stroke-dasharray:none;stroke-opacity:1"
       transform="scale(-1,1)" /><rect
       style="fill:#aaeeff;stroke:#000000;stroke-width:0.264583;stroke-linecap:round;stroke-linejoin:round;stroke-miterlimit:4;stroke-dasharray:none;stroke-opacity:1"
       id="rect4024"
       width="1.9513021"
       height="1.9513021"
       x="-72.450432"
       y="84.213974"
       rx="0.53348637"
       ry="0.53348637"
       transform="scale(-1,1)" /><rect
       style="fill:#aaeeff;stroke:#000000;stroke-width:0.264583;stroke-linecap:round;stroke-linejoin:round;stroke-miterlimit:4;stroke-dasharray:none;stroke-opacity:1"
       id="rect4026"
       width="1.9513021"
       height="1.9513021"
       x="-72.450432"
       y="88.645744"
       rx="0.53348637"
       ry="0.53348637"
       transform="scale(-1,1)" /><rect
       ry="0.53348637"
       rx="0.53348637"
       y="92.978294"
       x="-72.450432"
       height="1.9513021"
       width="1.9513021"
       id="rect4028"
       style="fill:#aaeeff;stroke:#000000;stroke-width:0.264583;stroke-linecap:round;stroke-linejoin:round;stroke-miterlimit:4;stroke-dasharray:none;stroke-opacity:1"
       transform="scale(-1,1)" /><circle
       transform="scale(-1,1)"
       id="path4030"
       style="fill:#2e2f31;fill-opacity:1;stroke:#000000;stroke-width:0.264583;stroke-linecap:round;stroke-linejoin:round;stroke-miterlimit:4;stroke-dasharray:none;stroke-opacity:1"
       cx="-71.498466"
       cy="100.48306"
       r="1.5743958" /><rect
       ry="1.3933822"
       rx="1.4264551"
       y="108.258"
       x="-73.442619"
       height="9.2934895"
       width="4.0018229"
       id="rect4032"
       style="fill:#999595;fill-opacity:1;stroke:#000000;stroke-width:0.264583;stroke-linecap:round;stroke-linejoin:round;stroke-miterlimit:4;stroke-dasharray:none;stroke-opacity:1"
       transform="scale(-1,1)" /><rect
       style="fill:#999595;fill-opacity:1;stroke:#000000;stroke-width:0.264583;stroke-linecap:round;stroke-linejoin:round;stroke-miterlimit:4;stroke-dasharray:none;stroke-opacity:1"
       id="rect4034"
       width="4.0018229"
       height="9.2934895"
       x="-73.442619"
       y="63.58707"
       rx="1.4264551"
       ry="1.3933822"
       transform="scale(-1,1)" /><path
       id="path4038"
       d="m 60.336929,64.524372 v 5.126302"
       style="fill:none;stroke:#000000;stroke-width:0.264583px;stroke-linecap:butt;stroke-linejoin:miter;stroke-opacity:1" /><path
       id="path4040"
       d="m 61.350497,65.186661 v 4.070318"
       style="fill:none;stroke:#000000;stroke-width:0.264583px;stroke-linecap:butt;stroke-linejoin:miter;stroke-opacity:1" /><path
       id="path4042"
       d="m 381.46875,790.93248 v 38"
       style="fill:none;stroke:#000000;stroke-width:1px;stroke-linecap:butt;stroke-linejoin:miter;stroke-opacity:1;filter:url(#filter3994-1)"
       transform="matrix(-0.26458333,0,0,0.26458333,157.90199,-147.07481)" /><g
       id="SingleRightTrigger0"><path
         id="path4064"
         d="m 71.505099,112.83374 h 1.144559 l -7.9e-5,0.49975 c -4e-5,0.27487 -0.0019,0.54181 -0.0035,0.59321 -0.01228,0.33592 -0.05805,0.48248 -0.190294,0.60941 -0.147082,0.14117 -0.373115,0.19975 -0.597612,0.15487 -0.125074,-0.025 -0.235143,-0.0877 -0.319156,-0.18196 -0.07718,-0.0865 -0.137531,-0.22569 -0.161803,-0.37297 -0.0054,-0.0327 -0.0066,-0.0361 -0.01082,-0.0301 -0.0026,0.004 -0.0205,0.0307 -0.03981,0.0598 -0.081,0.12257 -0.150067,0.19243 -0.287899,0.2912 -0.07999,0.0573 -0.119782,0.083 -0.421375,0.27174 l -0.255003,0.1596 -7.94e-4,-0.27267 c -5.29e-4,-0.21526 2.7e-5,-0.27353 0.0035,-0.27675 0.0024,-0.002 0.137388,-0.0932 0.299871,-0.20215 0.469347,-0.31467 0.522494,-0.35391 0.578141,-0.42691 0.0552,-0.0724 0.06888,-0.13057 0.07187,-0.30563 l 0.0019,-0.11056 H 70.838662 70.36057 v -0.22998 -0.22997 h 1.144559 z m 0.178769,1.03666 c 0.0042,0.0751 0.01164,0.1415 0.01913,0.17021 0.02265,0.0867 0.09008,0.15452 0.179001,0.18013 0.03318,0.01 0.117309,0.0135 0.154126,0.007 0.08929,-0.0151 0.15145,-0.06 0.189063,-0.13655 0.03607,-0.0734 0.0386,-0.10715 0.03873,-0.51921 l 7.7e-5,-0.27862 H 71.97211 71.680214 l 8e-6,0.25563 c 0,0.14059 0.0019,0.28507 0.0036,0.32108 z"
         style="stroke:#000000;stroke-width:0.00353806;stroke-linecap:round;stroke-linejoin:round;stroke-miterlimit:4;stroke-dasharray:none;stroke-opacity:1" /><path
         id="path4066"
         d="m 70.31892,111.61238 c 0.02758,-0.34989 0.150275,-0.57472 0.391093,-0.71667 0.09661,-0.0569 0.252651,-0.10728 0.374687,-0.12089 l 0.02191,-0.002 0.0021,0.012 c 0.0038,0.0221 0.04287,0.43626 0.04133,0.4378 -7.93e-4,8e-4 -0.01757,0.005 -0.03718,0.009 -0.01963,0.004 -0.055,0.0141 -0.07862,0.0219 -0.182986,0.0608 -0.284086,0.17537 -0.317138,0.35939 -0.01011,0.0563 -0.01098,0.1795 -0.0016,0.23891 0.01243,0.0793 0.0329,0.13956 0.06354,0.18693 0.04204,0.065 0.100952,0.11379 0.164135,0.13598 0.03574,0.0125 0.107465,0.0162 0.143017,0.007 0.06979,-0.0176 0.11543,-0.0597 0.157126,-0.14499 0.02925,-0.0598 0.04967,-0.12802 0.114951,-0.38399 0.05945,-0.23312 0.09148,-0.32753 0.15009,-0.4425 0.05596,-0.10976 0.132363,-0.19601 0.23001,-0.25965 0.103841,-0.0677 0.22174,-0.0992 0.351624,-0.0939 0.111916,0.005 0.215693,0.0387 0.310094,0.10225 0.06944,0.0467 0.118321,0.0959 0.165862,0.16675 0.09689,0.14446 0.144976,0.33554 0.144928,0.57598 -5.6e-5,0.26803 -0.05399,0.47124 -0.164872,0.62123 -0.02867,0.0388 -0.08962,0.0997 -0.128405,0.12841 -0.104757,0.0774 -0.22251,0.12035 -0.363342,0.13239 -0.02162,0.002 -0.03976,0.003 -0.04031,0.002 -0.0016,-0.002 -0.02178,-0.46169 -0.02048,-0.46312 7.94e-4,-7.9e-4 0.01529,-0.004 0.0327,-0.008 0.09819,-0.0214 0.177176,-0.0644 0.221345,-0.12058 0.03419,-0.0434 0.05729,-0.0998 0.07029,-0.1715 0.01037,-0.0573 0.01138,-0.18658 0.0019,-0.24714 -0.01484,-0.0949 -0.04761,-0.1723 -0.09421,-0.22263 -0.04939,-0.0534 -0.134353,-0.0688 -0.202705,-0.0368 -0.03108,0.0145 -0.06774,0.0497 -0.08965,0.0861 -0.04056,0.0673 -0.07932,0.18338 -0.131625,0.39436 -0.06314,0.25467 -0.111067,0.39943 -0.168209,0.50814 -0.09247,0.17592 -0.245912,0.29388 -0.430609,0.33102 -0.06693,0.0135 -0.116637,0.0173 -0.193069,0.0151 -0.0537,-0.002 -0.0776,-0.004 -0.111324,-0.0111 -0.186269,-0.0393 -0.3468,-0.14926 -0.442304,-0.30291 -0.06723,-0.10815 -0.110238,-0.246 -0.130572,-0.41855 -0.0054,-0.0461 -0.0099,-0.26111 -0.0064,-0.30598 v 0 z"
         style="stroke:#000000;stroke-width:0.00357862;stroke-linecap:round;stroke-linejoin:round;stroke-miterlimit:4;stroke-dasharray:none;stroke-opacity:1" /></g><g
       id="SingleLeftTrigger0"><path
         id="path4062"
         d="m 70.291107,67.031148 c 0.01625,-0.267039 0.09544,-0.468148 0.240077,-0.60956 0.107686,-0.105286 0.255148,-0.17938 0.427839,-0.214958 0.03948,-0.0081 0.111088,-0.01982 0.112144,-0.01826 0,5.3e-4 0.0095,0.09546 0.02061,0.211246 0.01106,0.115779 0.02098,0.216483 0.02204,0.223785 0.0019,0.01167 0.0011,0.01326 -0.0053,0.01326 -0.01241,0 -0.06767,0.01376 -0.108361,0.02695 -0.193627,0.06286 -0.297113,0.190103 -0.320421,0.393944 -0.0054,0.04684 -0.0024,0.167018 0.0052,0.21064 0.02,0.115199 0.06517,0.200318 0.136514,0.257399 0.05573,0.04458 0.101222,0.06073 0.171641,0.06091 0.05019,0 0.07817,-0.0063 0.111447,-0.02553 0.02289,-0.01326 0.05459,-0.04465 0.07293,-0.07224 0.04377,-0.06585 0.06522,-0.131302 0.142975,-0.43634 0.04856,-0.190569 0.07764,-0.281419 0.12169,-0.380288 0.05968,-0.133898 0.138597,-0.231024 0.246674,-0.303562 0.05956,-0.03997 0.136289,-0.07169 0.209214,-0.08647 0.03466,-0.0071 0.05009,-0.008 0.121102,-0.0079 0.07039,8.2e-5 0.08604,0.0011 0.115898,0.0079 0.174774,0.03905 0.32139,0.148201 0.407297,0.303199 0.03861,0.06965 0.07079,0.159824 0.08892,0.249145 0.03979,0.196067 0.0318,0.45579 -0.01966,0.639056 -0.02373,0.08456 -0.06444,0.172673 -0.108688,0.235291 -0.03041,0.04306 -0.106032,0.118632 -0.149458,0.149384 -0.06951,0.04921 -0.160809,0.0887 -0.24679,0.106752 -0.04347,0.0091 -0.099,0.01627 -0.126307,0.01627 h -0.01606 l -2.1e-5,-0.02035 c -1.6e-5,-0.01117 -0.004,-0.108704 -0.0088,-0.216704 -0.0049,-0.108 -0.0088,-0.20197 -0.0088,-0.208833 l -5e-6,-0.01246 0.03095,-0.0063 c 0.0694,-0.01413 0.138766,-0.04496 0.180888,-0.08032 0.08203,-0.06887 0.117224,-0.170627 0.117173,-0.338828 -2.3e-5,-0.110773 -0.01492,-0.18678 -0.05113,-0.260747 -0.04201,-0.08582 -0.08739,-0.120843 -0.161595,-0.124727 -0.05522,-0.0029 -0.09344,0.01029 -0.131992,0.04553 -0.06168,0.05637 -0.102473,0.159848 -0.17213,0.436541 -0.05422,0.21541 -0.07865,0.297317 -0.120269,0.403336 -0.07394,0.188336 -0.176062,0.308941 -0.323448,0.381971 -0.08816,0.04368 -0.16936,0.06288 -0.286578,0.06778 -0.139166,0.0058 -0.266994,-0.02745 -0.389152,-0.10123 -0.136559,-0.08248 -0.234262,-0.210222 -0.290007,-0.37915 -0.0486,-0.147275 -0.06991,-0.343268 -0.05823,-0.535456 v 0 z"
         style="stroke:#000000;stroke-width:0.00353806;stroke-linecap:round;stroke-linejoin:round;stroke-miterlimit:4;stroke-dasharray:none;stroke-opacity:1" /><path
         id="path4068"
         d="m 71.473953,68.654557 h 1.148736 v 0.232609 0.232608 h -0.955495 -0.955493 v 0.581531 0.581522 h -0.193246 -0.193246 v -0.814131 -0.814139 z"
         style="stroke:#000000;stroke-width:0.00357862;stroke-linecap:round;stroke-linejoin:round;stroke-miterlimit:4;stroke-dasharray:none;stroke-opacity:1" /></g><path
       style="fill:#44484c;fill-opacity:1;stroke:#000000;stroke-width:0.264583px;stroke-linecap:butt;stroke-linejoin:miter;stroke-opacity:1"
       d="m 35.904558,11.76891 h 1.501193 l 0.0042,-0.958829 h 1.605518 c 0.420423,0 0.553932,0.382418 0.553932,0.959443 v 8.792554 c 0,0.41027 -0.387932,0.732996 -0.733002,0.732996 h -1.083786 c -0.295275,0 -0.312341,-0.319455 -0.342768,-0.593693 V 20.117742 H 35.92972 Z"
       id="path4172" /><path
       style="fill:#44484c;fill-opacity:1;stroke:#000000;stroke-width:0.264583px;stroke-linecap:butt;stroke-linejoin:miter;stroke-opacity:1"
       d="M 37.406703,20.100131 V 11.831902"
       id="path4174" /><path
       id="path4176"
       d="m 29.267115,6.5371897 v 1.852083 h 4.960937 v -1.885156 c 0,-0.2437079 -0.213122,-0.3536949 -0.40513,-0.4051559 -1.385438,-0.371211 -2.876788,-0.352399 -4.192005,0 -0.207354,0.05556 -0.363802,0.1947589 -0.363802,0.4382289 z"
       style="fill:#44484c;fill-opacity:1;stroke:#000000;stroke-width:0.264583px;stroke-linecap:butt;stroke-linejoin:miter;stroke-opacity:1" /><path
       id="path4180"
       d="m 24.419382,23.304492 c -0.20619,0.740701 -1.629331,2.124948 -3.05062,2.447316 0,0.421429 0.247492,1.005602 0.760043,1.005602 h 4.8877 c 1.029362,0 0.770335,3.348196 -0.897149,3.348196 h -1.68701 c -3.504935,1.440339 -6.635141,1.469734 -10.056019,0 h -1.777365 c -1.5485,0 -1.867296,-3.317637 -0.888947,-3.317637 h 4.794436 c 0.695272,0 1.020762,-0.486277 0.979963,-0.979963 -1.247881,-0.516758 -2.36212,-1.193906 -2.991167,-2.45327 v -0.46773 h 9.930315 z"
       style="fill:#44484c;fill-opacity:1;stroke:#000000;stroke-width:0.264583px;stroke-linecap:butt;stroke-linejoin:miter;stroke-opacity:1" /><path
       style="fill:#00bbdb;fill-opacity:1;stroke:#000000;stroke-width:0.264583px;stroke-linecap:round;stroke-linejoin:round;stroke-opacity:1"
       d="m 3.1349058,23.187797 c -0.970783,0 -2.8442713,-1.929288 -2.8442713,-2.968281 v -6.81302 c 0.520621,-1.975089 1.5200053,-4.1207013 4.7625003,-4.7625003 0.566261,0 0.859896,-0.533533 0.859896,-0.859896 3.06951,-4.0709057 6.4024682,-6.1659029 9.8226572,-7.6067708 h 7.242969 c 3.115389,1.3968147 4.852326,3.4828691 6.217708,5.7546869 v 1.2567709 c 0,0.518822 0.42971,1.058334 0.992187,1.058334 h 6.019271 V 23.196079 Z"
       id="path4178" /><path
       style="fill:#44484c;fill-opacity:1;stroke:#000000;stroke-width:0.264583px;stroke-linecap:butt;stroke-linejoin:miter;stroke-opacity:1"
       d="M 1.9949328,14.65448 H 30.215662 v 3.251237 c 0,1.098243 -1.401771,2.731037 -2.73104,2.731037 H 3.8156258 c -1.444993,0 -2.5142903,-1.396424 -2.5142903,-2.514288 0,-1.34669 -0.1161,-3.467986 0.6935973,-3.467986 z"
       id="path4164" /><path
       style="fill:#44484c;fill-opacity:1;stroke:#000000;stroke-width:0.264583px;stroke-linecap:butt;stroke-linejoin:miter;stroke-opacity:1"
       d="M 4.1190738,11.099795 H 29.998912 C 29.985313,5.7111738 27.335498,0.1322915 22.239297,0.1322915 l -7.239421,0.086701 C 7.9123758,1.5120668 6.4557758,6.6026927 4.1190738,11.099795 Z"
       id="path4162" /><path
       id="path4184"
       d="M 22.071205,26.744075 H 16.944902"
       style="fill:none;stroke:#000000;stroke-width:0.264583px;stroke-linecap:butt;stroke-linejoin:miter;stroke-opacity:1" /><path
       id="path4188"
       d="M 21.408926,25.730509 H 17.338602"
       style="fill:none;stroke:#000000;stroke-width:0.264583px;stroke-linecap:butt;stroke-linejoin:miter;stroke-opacity:1" /><path
       id="path4192"
       d="m 1036.7923,1045.6825 v 38"
       style="fill:none;stroke:#000000;stroke-width:1px;stroke-linecap:butt;stroke-linejoin:miter;stroke-opacity:1;filter:url(#filter3994-1)"
       transform="matrix(0,0.26458333,-0.26458333,0,301.07298,-244.20874)" /><g
       id="LeftTrigger"><path
         style="fill-opacity:1;stroke:#000000;stroke-width:0.00334412;stroke-linecap:round;stroke-linejoin:round;stroke-miterlimit:4;stroke-dasharray:none;stroke-opacity:1"
         d="m 17.550756,7.0784747 v -0.211688 l 0.613645,-0.7579259 c 0.337506,-0.416859 0.613646,-0.7587585 0.613646,-0.7597745 0,-0.00106 -0.245293,-0.00185 -0.545092,-0.00185 H 17.687866 V 5.1516039 4.9559737 h 0.854421 0.854419 v 0.1817132 0.1817105 l -0.64054,0.7889164 -0.640541,0.7889159 0.665621,7.93e-4 0.665623,7.94e-4 v 0.195623 0.195622 h -0.948055 -0.948058 v -0.211688 z"
         id="path4216" /><path
         style="fill-opacity:1;stroke:#000000;stroke-width:0.00334412;stroke-linecap:round;stroke-linejoin:round;stroke-miterlimit:4;stroke-dasharray:none;stroke-opacity:1"
         d="M 19.761215,6.1330998 V 4.976037 h 0.234087 0.234088 v 0.9614328 0.9614319 h 0.586891 0.586893 v 0.19563 0.19563 h -0.820981 -0.820978 z"
         id="path4218" /></g><path
       style="fill-opacity:1;stroke:#000000;stroke-width:0.00334412;stroke-linecap:round;stroke-linejoin:round;stroke-miterlimit:4;stroke-dasharray:none;stroke-opacity:1"
       d="m 18.76467,17.759127 v -1.157063 h 0.234087 0.234088 v 0.961433 0.961429 h 0.586893 0.586891 v 0.195633 0.19563 H 19.585648 18.76467 Z"
       id="LeftShoulder" /></g><style
     id="style1">.button{fill:#44484c;}</style></svg>
