<?xml version="1.0" encoding="UTF-8" standalone="no"?>
<!-- Created with Inkscape (http://www.inkscape.org/) -->

<svg
   width="1000"
   height="1000"
   viewBox="0 0 264.58333 264.58333"
   version="1.1"
   id="svg1"
   xmlns="http://www.w3.org/2000/svg"
   xmlns:svg="http://www.w3.org/2000/svg">
  <defs
     id="defs1" />
  <style
     type="text/css"
     id="style1">
        .button-letter{fill:#ffffff;}
        .button{fill:#44484c;}
  </style>
  <g
     id="layer1">
    <path
       id="path3828"
       d="m 93.197715,62.688345 h -2.620729 v 21.545122 h 2.56557 c 0.89606,0 1.351744,-0.624998 1.351744,-1.35174 V 63.819394 c 0,-0.689696 -0.504663,-1.131049 -1.296585,-1.131049 z"
       style="fill:#00bbdb;fill-opacity:1;stroke:#000000;stroke-width:0.624212px;stroke-linecap:butt;stroke-linejoin:miter;stroke-opacity:1" />
    <path
       style="fill:#00bbdb;fill-opacity:1;stroke:#000000;stroke-width:0.624212px;stroke-linecap:butt;stroke-linejoin:miter;stroke-opacity:1"
       d="m 93.197715,189.88155 h -2.620729 v -21.5451 h 2.56557 c 0.89606,0 1.351744,0.62498 1.351744,1.35171 v 19.06237 c 0,0.68969 -0.504663,1.13102 -1.296585,1.13102 z"
       id="path3830" />
    <path
       id="path3826"
       d="M 93.528763,17.942907 H 84.783801 V 227.42817 h 4.091826 v 8.69996 c 0,0.97215 0.816577,2.6123 1.50821,2.6123 h 3.046593 c 0.558879,0 1.062338,-0.43161 1.062338,-1.0623 v -40.72588 c 0,-5.38012 -3.364052,-5.44616 -3.364052,-7.14492 v -21.6003 c 0,-1.53274 3.282823,-1.90985 3.282823,-6.28972 V 90.412872 c 0,-4.341563 -3.282823,-4.633568 -3.282823,-6.289744 l 0.07809,-21.241668 c 0,-1.463087 3.282799,-2.59006 3.282799,-6.482858 l -0.0018,-37.331542 c 0.0049,-0.612796 -0.296036,-1.124153 -0.95865,-1.124153 z"
       style="fill:#44484c;fill-opacity:1;stroke:#000000;stroke-width:0.624212px;stroke-linecap:butt;stroke-linejoin:miter;stroke-opacity:1" />
    <path
       id="LeftShoulder"
       class="button"
       d="M 71.141642,4.5840631 V 1.9701729 c 0,-0.7845694 -0.801336,-1.65806689 -1.658066,-1.65806689 H 53.097985 c -25.276611,0 -47.9020118,20.38799499 -51.7794075,34.85862199 -0.1769423,0.660145 -0.2403108,1.986235 0.910356,1.986235 h 2.9103949 z"
       style="fill-opacity:1;stroke:#000000;stroke-width:0.624212px;stroke-linecap:butt;stroke-linejoin:miter;stroke-opacity:1" />
    <path
       id="path3925"
       d="M 85.524929,5.5446231 V 263.1496 c 0,0.63887 -0.315806,1.12163 -1.121649,1.12163 H 53.416952 c -32.259013,0 -53.10484599,-28.52508 -53.10484599,-53.10484 V 56.398494 C 0.31210601,20.26586 35.745182,3.5158114 53.194784,3.5158114 h 30.455738 c 1.551854,0 1.874407,0.8539058 1.874407,2.0288117 z"
       style="display:inline;fill:#00bbdb;fill-opacity:1;stroke:#000000;stroke-width:0.624212px;stroke-linecap:butt;stroke-linejoin:miter;stroke-opacity:1" />
    <circle
       id="path3871"
       style="fill:#44484c;fill-opacity:1;stroke:#000000;stroke-width:0.624212;stroke-linecap:round;stroke-linejoin:round;stroke-miterlimit:4;stroke-dasharray:none;stroke-opacity:1"
       cx="45.383232"
       cy="125.1807"
       r="9.4570808" />
    <circle
       style="fill:#44484c;fill-opacity:1;stroke:#000000;stroke-width:0.624212;stroke-linecap:round;stroke-linejoin:round;stroke-miterlimit:4;stroke-dasharray:none;stroke-opacity:1"
       id="path3873"
       cx="45.383232"
       cy="164.27483"
       r="9.4570808" />
    <circle
       style="fill:#44484c;fill-opacity:1;stroke:#000000;stroke-width:0.624212;stroke-linecap:round;stroke-linejoin:round;stroke-miterlimit:4;stroke-dasharray:none;stroke-opacity:1"
       id="path3875"
       transform="rotate(90)"
       cx="144.72777"
       cy="-25.836153"
       r="9.4570808" />
    <circle
       transform="rotate(90)"
       id="path3877"
       style="fill:#44484c;fill-opacity:1;stroke:#000000;stroke-width:0.624212;stroke-linecap:round;stroke-linejoin:round;stroke-miterlimit:4;stroke-dasharray:none;stroke-opacity:1"
       cx="144.72777"
       cy="-64.93026"
       r="9.4570808" />
    <rect
       style="fill-opacity:1;stroke:#000000;stroke-width:0.624212;stroke-linecap:round;stroke-linejoin:round;stroke-miterlimit:4;stroke-dasharray:none;stroke-opacity:1"
       id="Back"
       class="button"
       width="13.84973"
       height="3.9793589"
       x="64.770714"
       y="27.445877" />
    <circle
       id="path3907"
       style="fill:#44484c;fill-opacity:1;stroke:#000000;stroke-width:0.624212;stroke-linecap:round;stroke-linejoin:round;stroke-miterlimit:4;stroke-dasharray:none;stroke-opacity:1"
       cx="45.459122"
       cy="71.1408"
       r="20.013832" />
    <path
       id="path3913"
       d="m 45.283504,90.058853 c -0.243093,-0.02724 -0.452358,-0.208017 -0.528892,-0.456894 -0.01416,-0.04954 -0.01651,-0.20608 -0.01888,-2.021978 l -0.0023,-1.968328 0.14415,0.0081 c 0.07928,0.0039 0.358107,0.0081 0.619698,0.0081 h 0.475597 l -0.0023,1.970175 -0.0023,1.970162 -0.02123,0.06335 c -0.06511,0.190578 -0.215869,0.340259 -0.406589,0.404173 -0.06227,0.02072 -0.180481,0.03175 -0.254751,0.02338 v 0 z"
       style="fill:#000000;fill-opacity:1;stroke:#000000;stroke-width:0.0195065;stroke-linecap:round;stroke-linejoin:round;stroke-miterlimit:4;stroke-dasharray:none;stroke-opacity:1" />
    <path
       id="path3913-8"
       d="m 45.434622,52.223145 c 0.247163,0.02887 0.459932,0.220525 0.537747,0.484365 0.0144,0.05251 0.01677,0.218471 0.0192,2.143553 l 0.0023,2.086678 -0.146563,-0.0084 c -0.0806,-0.0041 -0.364103,-0.0084 -0.630075,-0.0084 h -0.483559 l 0.0023,-2.088635 0.0023,-2.088621 0.02158,-0.06716 c 0.0662,-0.202038 0.219482,-0.360718 0.413396,-0.428476 0.0633,-0.02196 0.183503,-0.03366 0.259017,-0.02479 v 0 z"
       style="fill:#000000;fill-opacity:1;stroke:#000000;stroke-width:0.0202518;stroke-linecap:round;stroke-linejoin:round;stroke-miterlimit:4;stroke-dasharray:none;stroke-opacity:1" />
    <path
       id="path3915"
       d="m 59.806505,71.322008 c 0,-0.221406 -0.0049,-0.500259 -0.007,-0.619683 l -0.007,-0.217117 2.017096,0.0027 2.017072,0.0026 0.07149,0.02617 c 0.269118,0.0983 0.436388,0.346437 0.418197,0.620415 -0.0094,0.151847 -0.0696,0.285696 -0.175291,0.393668 -0.0828,0.08475 -0.1609,0.129639 -0.304646,0.175783 -0.03113,0.0093 -0.444127,0.01328 -2.033563,0.01527 l -1.994565,0.0027 v -0.402555 0 z"
       style="fill:#000000;fill-opacity:1;stroke:#000000;stroke-width:0.0195065;stroke-linecap:round;stroke-linejoin:round;stroke-miterlimit:4;stroke-dasharray:none;stroke-opacity:1" />
    <path
       id="path3917"
       d="m 26.928027,71.713911 c -0.13424,-0.01766 -0.265319,-0.0854 -0.360891,-0.186526 -0.332557,-0.351564 -0.164911,-0.91291 0.307243,-1.028164 0.04412,-0.01067 0.430158,-0.01329 2.153412,-0.01342 l 2.099786,-3.59e-4 -0.007,0.207261 c -0.0049,0.113964 -0.007,0.392698 -0.007,0.619339 v 0.412078 l -2.062819,-0.0012 c -1.134577,-6.38e-4 -2.08917,-0.0054 -2.12135,-0.0093 z"
       style="fill:#000000;fill-opacity:1;stroke:#000000;stroke-width:0.0195065;stroke-linecap:round;stroke-linejoin:round;stroke-miterlimit:4;stroke-dasharray:none;stroke-opacity:1" />
    <circle
       style="fill-opacity:1;stroke:#000000;stroke-width:0.624212;stroke-linecap:round;stroke-linejoin:round;stroke-miterlimit:4;stroke-dasharray:none;stroke-opacity:1"
       id="LeftStick"
       class="button"
       cx="45.459122"
       cy="71.279633"
       r="14.034906" />
    <rect
       style="fill:#44484c;fill-opacity:1;stroke:#000000;stroke-width:0.624212;stroke-linecap:round;stroke-linejoin:round;stroke-miterlimit:4;stroke-dasharray:none;stroke-opacity:1"
       id="rect3919"
       width="16.073488"
       height="15.683355"
       x="51.740257"
       y="186.54222"
       ry="2.1067193" />
    <circle
       style="fill:#000000;stroke:#000000;stroke-width:0.624212;stroke-linecap:round;stroke-linejoin:round;stroke-miterlimit:4;stroke-dasharray:none;stroke-opacity:1"
       id="path3921"
       cx="59.718506"
       cy="194.52045"
       r="5.5203857" />
    <path
       style="stroke:#000000;stroke-width:0.904694;stroke-linecap:round;stroke-linejoin:round;stroke-miterlimit:4;stroke-dasharray:none;stroke-opacity:1"
       id="DpadRight"
       d="m 134.97306,862.5577 0,-11.46794 9.93153,5.73397 z"
       transform="matrix(0.68997127,0,0,0.68997127,-30.716968,-446.43677)" />
    <path
       transform="matrix(-0.68997127,0,0,0.68997127,121.58263,-446.43677)"
       d="m 134.97306,862.5577 0,-11.46794 9.93153,5.73397 z"
       id="DpadLeft"
       style="stroke:#000000;stroke-width:0.904694;stroke-linecap:round;stroke-linejoin:round;stroke-miterlimit:4;stroke-dasharray:none;stroke-opacity:1" />
    <path
       transform="matrix(0,-0.68997127,0.68997127,0,-545.81256,221.00462)"
       d="m 134.97306,862.5577 0,-11.46794 9.93153,5.73397 z"
       id="DpadUp"
       style="stroke:#000000;stroke-width:0.904694;stroke-linecap:round;stroke-linejoin:round;stroke-miterlimit:4;stroke-dasharray:none;stroke-opacity:1" />
    <path
       style="stroke:#000000;stroke-width:0.904694;stroke-linecap:round;stroke-linejoin:round;stroke-miterlimit:4;stroke-dasharray:none;stroke-opacity:1"
       id="DpadDown"
       d="m 134.97306,862.5577 0,-11.46794 9.93153,5.73397 z"
       transform="matrix(0,0.68997127,0.68997127,0,-545.81256,68.705012)" />
    <path
       style="fill:#ff5f53;fill-opacity:1;stroke:#000000;stroke-width:0.623304px;stroke-linecap:butt;stroke-linejoin:miter;stroke-opacity:1"
       d="m 171.63364,62.597166 h 2.61697 v 21.51379 h -2.56186 c -0.89476,0 -1.34976,-0.6241 -1.34976,-1.34978 v -19.0346 c 0,-0.68871 0.50393,-1.12941 1.29465,-1.12941 z"
       id="path3822" />
    <path
       id="path3824"
       d="m 171.63364,189.60538 h 2.61697 v -21.5138 h -2.56186 c -0.89476,0 -1.34976,0.6241 -1.34976,1.34978 v 19.0346 c 0,0.68872 0.50393,1.12942 1.29465,1.12942 z"
       style="fill:#ff5f53;fill-opacity:1;stroke:#000000;stroke-width:0.623304px;stroke-linecap:butt;stroke-linejoin:miter;stroke-opacity:1" />
    <path
       style="fill:#44484c;fill-opacity:1;stroke:#000000;stroke-width:0.623304px;stroke-linecap:butt;stroke-linejoin:miter;stroke-opacity:1"
       d="m 171.3031,17.916809 h 8.73227 V 227.09738 h -4.0859 v 8.68732 c 0,0.97073 -0.81539,2.6085 -1.50602,2.6085 h -3.04216 c -0.55806,0 -1.06074,-0.43099 -1.06074,-1.06076 V 196.6658 c 0,-5.3723 3.35911,-5.43824 3.35911,-7.13454 v -21.56887 c 0,-1.53052 -3.27803,-1.90709 -3.27803,-6.28061 V 90.281366 c 0,-4.33524 3.27803,-4.62682 3.27803,-6.28059 l -0.078,-21.21078 c 0,-1.46096 -3.27802,-2.58628 -3.27802,-6.47342 v -37.27725 c -0.007,-0.611905 0.29555,-1.122517 0.9572,-1.122517 z"
       id="path3820" />
    <path
       style="fill-opacity:1;stroke:#000000;stroke-width:0.623304px;stroke-linecap:butt;stroke-linejoin:miter;stroke-opacity:1"
       d="M 193.42147,4.577397 V 1.967308 c 0,-0.783429 0.80019,-1.655656 1.65568,-1.655656 h 16.36178 c 25.2398,0 47.83231,20.35834 51.70409,34.807924 0.17669,0.65918 0.23999,1.98334 -0.90903,1.98334 h -2.90616 z"
       class="button"
       id="RightShoulder" />
    <path
       style="fill:#ff5f53;fill-opacity:1;stroke:#000000;stroke-width:0.623304px;stroke-linecap:butt;stroke-linejoin:miter;stroke-opacity:1"
       d="M 179.18287,5.921399 V 263.15167 c 0,0.63795 0.31533,1.12001 1.12002,1.12001 h 30.94124 c 32.21211,0 53.02763,-28.48359 53.02763,-53.0276 V 56.701296 c 0,-36.080072 -35.38154,-52.805757 -52.80579,-52.805757 h -30.41144 c -1.5496,0 -1.87166,0.852662 -1.87166,2.02586 z"
       id="path3923" />
    <path
       style="fill-opacity:1;stroke:#000000;stroke-width:0.623304px;stroke-linecap:round;stroke-linejoin:round;stroke-opacity:1"
       d="m 186.21364,27.4046 h 4.74192 v -4.6829 h 3.93517 v 4.702571 h 4.66326 v 3.935212 h -4.64356 v 4.859983 h -3.99421 v -4.859983 h -4.68296 z"
       class="button"
       id="Start" />
    <circle
       style="fill:#44484c;fill-opacity:1;stroke:#000000;stroke-width:0.623304;stroke-linecap:round;stroke-linejoin:round;stroke-miterlimit:4;stroke-dasharray:none;stroke-opacity:1"
       id="path3095"
       cx="218.91861"
       cy="49.868065"
       r="9.443327" />
    <circle
       id="path3865"
       style="fill:#44484c;fill-opacity:1;stroke:#000000;stroke-width:0.623304;stroke-linecap:round;stroke-linejoin:round;stroke-miterlimit:4;stroke-dasharray:none;stroke-opacity:1"
       cx="218.91861"
       cy="88.905327"
       r="9.443327" />
    <circle
       transform="rotate(90)"
       id="path3867"
       style="fill:#44484c;fill-opacity:1;stroke:#000000;stroke-width:0.623304;stroke-linecap:round;stroke-linejoin:round;stroke-miterlimit:4;stroke-dasharray:none;stroke-opacity:1"
       cx="69.386696"
       cy="-199.39992"
       r="9.443327" />
    <circle
       style="fill:#44484c;fill-opacity:1;stroke:#000000;stroke-width:0.623304;stroke-linecap:round;stroke-linejoin:round;stroke-miterlimit:4;stroke-dasharray:none;stroke-opacity:1"
       id="path3869"
       transform="rotate(90)"
       cx="69.386696"
       cy="-238.43718"
       r="9.443327" />
    <circle
       id="path3879"
       style="fill:#999595;fill-opacity:1;stroke:#000000;stroke-width:0.623304;stroke-linecap:round;stroke-linejoin:round;stroke-miterlimit:4;stroke-dasharray:none;stroke-opacity:1"
       cx="204.73285"
       cy="190.58415"
       r="10.489907" />
    <circle
       style="fill:#3a3d40;fill-opacity:1;stroke:#000000;stroke-width:0.623304;stroke-linecap:round;stroke-linejoin:round;stroke-miterlimit:4;stroke-dasharray:none;stroke-opacity:1"
       id="path3881"
       cx="204.73282"
       cy="190.67955"
       r="7.834487" />
    <path
       style="fill:#000000;stroke:#000000;stroke-width:0.623304;stroke-linecap:butt;stroke-linejoin:miter;stroke-miterlimit:4;stroke-dasharray:none;stroke-opacity:1"
       d="m 199.22201,190.26217 h 1.54823 v 4.87267 c 2.59543,0 5.4958,0 7.85494,0 v -4.87267 h 1.54819 c -1.7057,-1.58618 -4.00126,-3.75231 -5.47568,-5.10089 -1.78447,1.64041 -3.66522,3.41042 -5.47568,5.10089 z m 3.65045,0.0815 c 1.20766,0 2.55586,0 3.65045,0 v 3.1127 c -1.2064,0 -2.55429,0 -3.65045,0 z"
       id="path3883" />
    <circle
       style="fill:#44484c;fill-opacity:1;stroke:#000000;stroke-width:0.623304;stroke-linecap:round;stroke-linejoin:round;stroke-miterlimit:4;stroke-dasharray:none;stroke-opacity:1"
       id="path3888"
       cx="219.03548"
       cy="141.86038"
       r="19.984724" />
    <path
       style="fill:#000000;stroke:#000000;stroke-width:0.0194783;stroke-linecap:round;stroke-linejoin:round;stroke-miterlimit:4;stroke-dasharray:none;stroke-opacity:1"
       d="m 218.31129,125.58354 c 1.4e-4,-1.33699 0.007,-2.12691 0.009,-2.16939 0.0188,-0.12886 0.082,-0.25202 0.18022,-0.35026 0.29619,-0.29619 0.79996,-0.20825 0.98258,0.1715 0.0686,0.14229 0.0636,-0.0302 0.0638,2.31736 l 1.4e-4,2.12043 -0.43719,-5.2e-4 c -0.24048,-2.8e-4 -0.51879,0.002 -0.61844,0.007 l -0.18116,0.007 1.9e-4,-2.1026 z"
       id="path3899" />
    <path
       style="fill:#000000;fill-opacity:1;stroke:#000000;stroke-width:0.0194783;stroke-linecap:round;stroke-linejoin:round;stroke-miterlimit:4;stroke-dasharray:none;stroke-opacity:1"
       d="m 218.86005,160.75093 c -0.24272,-0.0271 -0.4517,-0.20778 -0.52813,-0.45624 -0.0141,-0.0495 -0.0165,-0.2059 -0.0188,-2.01902 l -0.007,-1.96549 0.14394,0.007 c 0.0791,0.005 0.35759,0.007 0.61882,0.007 h 0.47488 v 1.9673 1.96731 l -0.0212,0.0634 c -0.065,0.19034 -0.21532,0.33975 -0.40595,0.40359 -0.0624,0.0212 -0.18045,0.0318 -0.25438,0.0236 v 0 z"
       id="path3901" />
    <path
       style="fill:#000000;fill-opacity:1;stroke:#000000;stroke-width:0.0194783;stroke-linecap:round;stroke-linejoin:round;stroke-miterlimit:4;stroke-dasharray:none;stroke-opacity:1"
       d="m 233.36192,142.04134 c 0,-0.22121 -0.007,-0.49955 -0.007,-0.6188 l -0.007,-0.21673 2.01414,0.002 2.01421,0.002 0.0714,0.0262 c 0.2687,0.0982 0.43575,0.34595 0.41756,0.61953 -0.009,0.15171 -0.0695,0.28529 -0.17503,0.39309 -0.0827,0.0846 -0.16067,0.12957 -0.30418,0.1755 -0.0311,0.009 -0.44348,0.0141 -2.03061,0.0165 l -1.99164,0.002 v -0.40197 0 z"
       id="path3903" />
    <path
       style="fill:#000000;fill-opacity:1;stroke:#000000;stroke-width:0.0194783;stroke-linecap:round;stroke-linejoin:round;stroke-miterlimit:4;stroke-dasharray:none;stroke-opacity:1"
       d="m 200.53132,142.43266 c -0.13405,-0.0188 -0.26496,-0.0853 -0.36039,-0.18634 -0.3321,-0.35104 -0.16467,-0.91158 0.30679,-1.02666 0.0443,-0.0118 0.42951,-0.0141 2.15028,-0.0141 l 2.09673,-3.6e-4 -0.007,0.20684 c -0.007,0.11379 -0.007,0.39212 -0.007,0.61845 v 0.41148 l -2.05984,-0.001 c -1.13291,-6.4e-4 -2.08613,-0.005 -2.11824,-0.009 z"
       id="path3905" />
    <circle
       id="RightStick"
       class="button"
       style="fill-opacity:1;stroke:#000000;stroke-width:0.623304;stroke-linecap:round;stroke-linejoin:round;stroke-miterlimit:4;stroke-dasharray:none;stroke-opacity:1"
       cx="219.03548"
       cy="141.99901"
       r="14.014492" />
    <path
       style="stroke:none;stroke-width:0.623304"
       d="m 214.35736,54.921716 c 0,-0.007 0.76648,-1.18123 1.70331,-2.61159 l 1.70329,-2.60093 -1.50957,-2.33178 c -0.83025,-1.28245 -1.52861,-2.35884 -1.55183,-2.39188 l -0.0424,-0.0598 h 1.16815 1.16812 l 1.00159,1.60601 c 0.55088,0.88334 1.01121,1.60283 1.02292,1.5989 0.0118,-0.007 0.46006,-0.72416 0.99629,-1.60052 l 0.97485,-1.59348 1.15081,-0.007 c 0.63291,-0.007 1.15073,0 1.15073,0.007 0,0.007 -0.69378,1.09458 -1.54187,2.41861 -0.88264,1.37819 -1.53793,2.42229 -1.5327,2.44236 0.007,0.0193 0.76773,1.17686 1.69483,2.5725 0.9271,1.39558 1.68567,2.54309 1.68567,2.55007 0,0.007 -0.53828,0.0118 -1.19625,0.0118 h -1.19625 l -1.11192,-1.73772 c -0.89798,-1.40349 -1.11707,-1.73229 -1.13877,-1.70891 -0.0141,0.0156 -0.52084,0.79826 -1.12449,1.73865 l -1.09766,1.70972 h -1.18846 c -0.65366,0 -1.1885,-0.007 -1.1885,-0.0106 z"
       id="X"
       class="button-letter" />
    <path
       style="stroke:none;stroke-width:0.623304"
       d="m 233.66024,74.293476 c 0.0375,-0.0993 3.7808,-9.70953 3.82834,-9.82896 l 0.0542,-0.1365 h 1.0542 1.0542 l 1.99265,4.97454 c 1.09596,2.736 1.99762,4.98688 2.00375,5.00202 0.009,0.0219 -0.20896,0.0262 -1.07672,0.0212 l -1.08791,-0.006 -0.43799,-1.14115 -0.43799,-1.14114 -2.00924,0.006 -2.00921,0.006 -0.41427,1.14127 -0.41424,1.14121 h -1.05719 c -0.99785,0 -1.05644,-0.006 -1.0428,-0.038 z m 6.29682,-3.94253 c -0.007,-0.0151 -0.31794,-0.85573 -0.69393,-1.86829 -0.37591,-1.01256 -0.69006,-1.83327 -0.69802,-1.82386 -0.0118,0.0125 -0.81417,2.21149 -1.34922,3.69215 -0.007,0.0212 0.27556,0.0268 1.37084,0.0268 1.09559,0 1.37862,-0.006 1.37033,-0.0268 z"
       id="A"
       class="button-letter" />
    <path
       style="stroke:none;stroke-width:0.623304"
       d="m 215.2136,89.120286 v -4.99274 l 2.4681,0.009 c 2.46075,0.0118 2.72639,0.0188 3.21986,0.0935 0.74879,0.11379 1.36342,0.49628 1.76906,1.10127 0.6167,0.91968 0.51717,2.11947 -0.24264,2.92491 -0.17716,0.18776 -0.3468,0.31926 -0.58323,0.45178 l -0.18352,0.10294 0.14866,0.0492 c 0.36246,0.11944 0.74591,0.33919 1.00328,0.57481 0.30204,0.27636 0.56214,0.71499 0.67522,1.13859 0.0518,0.19294 0.0573,0.25487 0.0591,0.61757 0,0.31452 -0.007,0.44272 -0.0379,0.58334 -0.1258,0.57277 -0.40347,1.10525 -0.77185,1.48074 -0.47147,0.48049 -1.04977,0.72422 -1.87578,0.79054 -0.41144,0.033 -2.41554,0.0643 -4.16112,0.065 h -1.48738 v -4.99274 z m 4.97634,3.2926 c 0.46106,-0.0379 0.70688,-0.13169 0.95047,-0.36149 0.25189,-0.23761 0.35622,-0.51213 0.35542,-0.9349 0,-0.65174 -0.35417,-1.10836 -0.9675,-1.25173 -0.35523,-0.0829 -0.56372,-0.0942 -1.95312,-0.10437 l -1.35664,-0.009 v 1.34229 1.34236 h 1.35664 c 0.74608,-1.9e-4 1.47275,-0.009 1.61473,-0.0212 v 0 z m -0.80295,-4.31363 c 0.72759,-0.0212 0.87325,-0.0417 1.13555,-0.16608 0.27438,-0.13004 0.46767,-0.34631 0.55898,-0.62519 0.0624,-0.19058 0.0624,-0.57978 -6.4e-4,-0.7735 -0.11755,-0.36345 -0.3875,-0.5975 -0.80238,-0.69581 -0.12934,-0.0306 -0.3557,-0.0368 -1.60531,-0.045 l -1.45466,-0.009 v 1.16751 1.16758 h 0.75724 c 0.41656,0 1.05152,-0.009 1.41111,-0.0188 v 0 z"
       id="B"
       class="button-letter" />
    <path
       style="stroke:none;stroke-width:0.623304"
       d="m 198.44799,72.424996 v -2.1001 l -1.81569,-2.87051 c -0.99867,-1.57871 -1.81575,-2.8745 -1.81575,-2.87942 0,-0.006 0.52108,-0.009 1.15792,-0.009 l 1.15797,2.5e-4 1.17418,1.97688 c 0.87332,1.47019 1.18042,1.97033 1.19825,1.95138 0.0141,-0.0137 0.53524,-0.90373 1.16002,-1.97706 l 1.13592,-1.95163 h 1.14209 1.14202 l -0.0311,0.0492 c -0.0165,0.0268 -0.8403,1.32677 -1.82909,2.88865 l -1.79774,2.83972 v 2.09094 2.09094 h -0.98943 -0.98939 v -2.10017 z"
       id="Y"
       class="button-letter" />
  </g>
</svg>
