<?xml version="1.0" encoding="UTF-8" standalone="no"?>
<svg
   id="Layer_1"
   width="1000.8"
   height="1300"
   x="0"
   y="0"
   version="1.1"
   viewBox="0 0 1000.8 1300"
   xml:space="preserve"
   xmlns="http://www.w3.org/2000/svg"
   xmlns:svg="http://www.w3.org/2000/svg"><defs
     id="defs1"><filter
       id="filter3994"
       color-interpolation-filters="sRGB"
       y="-0.059999999"
       height="1.12"
       x="-inf"
       width="inf"><feGaussianBlur
         stdDeviation="0.95"
         id="feGaussianBlur3996" /></filter><filter
       id="filter3994-6"
       color-interpolation-filters="sRGB"
       y="-0.059999999"
       height="1.12"
       x="-inf"
       width="inf"><feGaussianBlur
         stdDeviation="0.95"
         id="feGaussianBlur3996-1" /></filter></defs><metadata
     id="metadata85" /><style
     type="text/css"
     id="style1">#buttons{fill:#ffffff;}
.button{fill:#44484c;}</style><g
     id="right"
     transform="matrix(8.7009664,0,0,8.7009664,-1454.1279,-3.6543895e-8)"><path
       style="fill:#ff5f53;fill-opacity:1;stroke:#000000;stroke-width:0.264583px;stroke-linecap:butt;stroke-linejoin:miter;stroke-opacity:1"
       d="m 225.11734,63.613186 h 1.11085 v 9.132265 h -1.08746 c -0.37981,0 -0.57295,-0.264917 -0.57295,-0.572958 V 64.0926 c 0,-0.292343 0.21391,-0.479414 0.54956,-0.479414 z"
       id="path3822" /><path
       id="path3824"
       d="m 225.11734,117.52618 h 1.11085 v -9.13226 h -1.08746 c -0.37981,0 -0.57295,0.26491 -0.57295,0.57295 v 8.0799 c 0,0.29234 0.21391,0.47941 0.54956,0.47941 z"
       style="fill:#ff5f53;fill-opacity:1;stroke:#000000;stroke-width:0.264583px;stroke-linecap:butt;stroke-linejoin:miter;stroke-opacity:1" /><path
       style="fill:#44484c;fill-opacity:1;stroke:#000000;stroke-width:0.264583px;stroke-linecap:butt;stroke-linejoin:miter;stroke-opacity:1"
       d="m 224.97703,44.647072 h 3.70671 v 88.793878 h -1.7344 v 3.68763 c 0,0.41206 -0.34613,1.10727 -0.63928,1.10727 h -1.29136 c -0.23688,0 -0.45026,-0.18294 -0.45026,-0.45028 v -17.26235 c 0,-2.28046 1.42589,-2.30845 1.42589,-3.0285 v -9.15565 c 0,-0.64968 -1.39147,-0.80953 -1.39147,-2.66601 V 75.364694 c 0,-1.840243 1.39147,-1.964013 1.39147,-2.666016 l -0.0331,-9.003641 c 0,-0.620152 -1.39147,-1.097836 -1.39147,-2.747865 V 45.123563 c -0.003,-0.259744 0.12546,-0.476491 0.40632,-0.476491 z"
       id="path3820" /><path
       style="fill:#44484c;fill-opacity:1;stroke:#000000;stroke-width:0.264583px;stroke-linecap:butt;stroke-linejoin:miter;stroke-opacity:1"
       d="m 234.36593,38.9847 v -1.107942 c 0,-0.332553 0.33967,-0.7028 0.70281,-0.7028 h 6.94532 c 10.7139,0 20.30407,8.641797 21.94758,14.775418 0.075,0.279813 0.10186,0.841899 -0.38587,0.841899 h -1.23362 z"
       id="path3818" /><path
       style="fill:#ff5f53;fill-opacity:1;stroke:#000000;stroke-width:0.264583px;stroke-linecap:butt;stroke-linejoin:miter;stroke-opacity:1"
       d="M 228.32187,39.555208 V 148.74544 c 0,0.2708 0.13385,0.47542 0.47543,0.47542 h 13.13407 c 13.67354,0 22.5094,-12.09083 22.5094,-22.50938 V 61.110481 c 0,-15.315427 -15.01891,-22.415219 -22.41523,-22.415219 h -12.90918 c -0.65778,0 -0.79449,0.361942 -0.79449,0.859946 z"
       id="path3923" /><path
       style="fill-opacity:1;stroke:#000000;stroke-width:0.264583px;stroke-linecap:round;stroke-linejoin:round;stroke-opacity:1"
       d="m 231.30632,48.674491 h 2.01287 v -1.987818 h 1.67042 v 1.996168 h 1.97948 v 1.670436 h -1.97112 v 2.062985 h -1.69548 v -2.062985 h -1.98784 z"
       id="Start"
       class="button" /><circle
       style="fill:#44484c;fill-opacity:1;stroke:#000000;stroke-width:0.264583;stroke-linecap:round;stroke-linejoin:round;stroke-miterlimit:4;stroke-dasharray:none;stroke-opacity:1"
       id="path3095"
       cx="245.18909"
       cy="58.209881"
       r="4.0085444" /><circle
       id="path3865"
       style="fill:#44484c;fill-opacity:1;stroke:#000000;stroke-width:0.264583;stroke-linecap:round;stroke-linejoin:round;stroke-miterlimit:4;stroke-dasharray:none;stroke-opacity:1"
       cx="245.18909"
       cy="74.780586"
       r="4.0085444" /><circle
       transform="rotate(90)"
       id="path3867"
       style="fill:#44484c;fill-opacity:1;stroke:#000000;stroke-width:0.264583;stroke-linecap:round;stroke-linejoin:round;stroke-miterlimit:4;stroke-dasharray:none;stroke-opacity:1"
       cx="66.495232"
       cy="-236.90369"
       r="4.0085444" /><circle
       style="fill:#44484c;fill-opacity:1;stroke:#000000;stroke-width:0.264583;stroke-linecap:round;stroke-linejoin:round;stroke-miterlimit:4;stroke-dasharray:none;stroke-opacity:1"
       id="path3869"
       transform="rotate(90)"
       cx="66.495232"
       cy="-253.47443"
       r="4.0085444" /><circle
       id="path3879"
       style="fill:#999595;fill-opacity:1;stroke:#000000;stroke-width:0.264583;stroke-linecap:round;stroke-linejoin:round;stroke-miterlimit:4;stroke-dasharray:none;stroke-opacity:1"
       cx="239.16745"
       cy="117.94165"
       r="4.4528017" /><circle
       style="fill:#3a3d40;fill-opacity:1;stroke:#000000;stroke-width:0.264583;stroke-linecap:round;stroke-linejoin:round;stroke-miterlimit:4;stroke-dasharray:none;stroke-opacity:1"
       id="path3881"
       cx="239.16742"
       cy="117.98216"
       r="3.3256173" /><path
       style="fill:#000000;stroke:#000000;stroke-width:0.264583;stroke-linecap:butt;stroke-linejoin:miter;stroke-miterlimit:4;stroke-dasharray:none;stroke-opacity:1"
       d="m 236.82817,117.80498 h 0.6572 v 2.06838 c 1.10172,0 2.33288,0 3.3343,0 v -2.06838 h 0.65718 c -0.72404,-0.67331 -1.69847,-1.59279 -2.32434,-2.16524 -0.75748,0.69632 -1.55583,1.44766 -2.32434,2.16524 z m 1.54956,0.0346 c 0.51263,0 1.08492,0 1.54956,0 v 1.32129 c -0.5121,0 -1.08427,0 -1.54956,0 z"
       id="path3883" /><circle
       style="fill-opacity:1;stroke:#000000;stroke-width:0.264583;stroke-linecap:round;stroke-linejoin:round;stroke-miterlimit:4;stroke-dasharray:none;stroke-opacity:1"
       id="path3888-2"
       cx="245.23871"
       cy="97.259186"
       r="8.4832029" /><g
       id="RightStick"
       class="button"><circle
         style="fill-opacity:1;stroke:#000000;stroke-width:0.264583;stroke-linecap:round;stroke-linejoin:round;stroke-miterlimit:4;stroke-dasharray:none;stroke-opacity:1"
         id="path3888"
         cx="245.23871"
         cy="97.259186"
         r="8.4832029" /><circle
         id="path3892"
         style="fill-opacity:1;stroke:#000000;stroke-width:0.264583;stroke-linecap:round;stroke-linejoin:round;stroke-miterlimit:4;stroke-dasharray:none;stroke-opacity:1"
         cx="245.23871"
         cy="97.318031"
         r="5.9489326" /><path
         style="fill:#000000;stroke:#000000;stroke-width:0.00826823;stroke-linecap:round;stroke-linejoin:round;stroke-miterlimit:4;stroke-dasharray:none;stroke-opacity:1"
         d="m 244.93127,90.349919 c 6e-5,-0.56753 0.003,-0.90285 0.004,-0.92087 0.008,-0.0547 0.0348,-0.10698 0.0765,-0.14869 0.12573,-0.12573 0.33957,-0.0884 0.41709,0.0728 0.029,0.0604 0.027,-0.0128 0.0271,0.98367 l 6e-5,0.900086 -0.18558,-2.1e-4 c -0.10208,-1.2e-4 -0.22022,0.001 -0.26252,0.003 l -0.0769,0.003 8e-5,-0.892526 z"
         id="path3899" /><path
         style="fill:#000000;fill-opacity:1;stroke:#000000;stroke-width:0.00826823;stroke-linecap:round;stroke-linejoin:round;stroke-miterlimit:4;stroke-dasharray:none;stroke-opacity:1"
         d="m 245.16421,105.27792 c -0.10303,-0.0115 -0.19174,-0.0882 -0.22418,-0.19366 -0.006,-0.021 -0.007,-0.0874 -0.008,-0.85705 l -0.003,-0.83431 0.0611,0.003 c 0.0336,0.002 0.15179,0.003 0.26268,0.003 h 0.20158 v 0.83509 0.83509 l -0.009,0.0269 c -0.0276,0.0808 -0.0914,0.14422 -0.17232,0.17131 -0.0265,0.009 -0.0766,0.0135 -0.10798,0.01 v 0 z"
         id="path3901" /><path
         style="fill:#000000;fill-opacity:1;stroke:#000000;stroke-width:0.00826823;stroke-linecap:round;stroke-linejoin:round;stroke-miterlimit:4;stroke-dasharray:none;stroke-opacity:1"
         d="m 251.32003,97.335985 c 0,-0.0938 -0.003,-0.21204 -0.003,-0.26266 l -0.003,-0.092 0.85498,0.001 0.855,10e-4 0.0303,0.0111 c 0.11406,0.0417 0.18497,0.14685 0.17725,0.26298 -0.004,0.0644 -0.0295,0.121092 -0.0743,0.166862 -0.0351,0.0359 -0.0682,0.055 -0.12911,0.0745 -0.0132,0.004 -0.18825,0.006 -0.86196,0.007 l -0.84543,10e-4 v -0.170632 0 z"
         id="path3903" /><path
         style="fill:#000000;fill-opacity:1;stroke:#000000;stroke-width:0.00826823;stroke-linecap:round;stroke-linejoin:round;stroke-miterlimit:4;stroke-dasharray:none;stroke-opacity:1"
         d="m 237.38395,97.502107 c -0.0569,-0.008 -0.11247,-0.0362 -0.15298,-0.0791 -0.14097,-0.149022 -0.0698,-0.386962 0.13023,-0.435812 0.0188,-0.005 0.18232,-0.006 0.91276,-0.006 l 0.89003,-1.4e-4 -0.003,0.0878 c -0.003,0.0483 -0.003,0.16646 -0.003,0.26252 v 0.174672 l -0.87437,-5.3e-4 c -0.4809,-2.6e-4 -0.88553,-0.002 -0.89916,-0.004 z"
         id="path3905" /></g><g
       id="buttons"><path
         style="stroke:none;stroke-width:0.264583"
         d="m 243.25289,60.355075 c 0,-0.0029 0.32536,-0.501412 0.72302,-1.108578 l 0.72303,-1.104053 -0.64079,-0.989807 c -0.35243,-0.54438 -0.64887,-1.001289 -0.65874,-1.015312 l -0.018,-0.0254 h 0.49586 0.49585 l 0.42516,0.681726 c 0.23384,0.374967 0.42924,0.680376 0.43421,0.678709 0.005,-0.0029 0.19529,-0.307393 0.42291,-0.679397 l 0.41381,-0.676407 0.4885,-0.0029 c 0.26866,-0.0029 0.48847,0 0.48847,0.0029 0,0.0029 -0.2945,0.464634 -0.6545,1.026662 -0.37467,0.58502 -0.65283,1.028224 -0.65061,1.036744 0.003,0.0082 0.32589,0.499559 0.71943,1.091988 0.39354,0.592402 0.71554,1.0795 0.71554,1.082463 0,0.0029 -0.22849,0.005 -0.50779,0.005 h -0.50779 l -0.47199,-0.737632 c -0.38118,-0.595762 -0.47418,-0.73533 -0.48339,-0.725408 -0.006,0.0066 -0.22109,0.338852 -0.47734,0.738029 l -0.46593,0.725752 h -0.50448 c -0.27747,0 -0.5045,-0.0029 -0.5045,-0.0045 z"
         id="X" /><path
         style="stroke:none;stroke-width:0.264583"
         d="m 251.44666,68.578086 c 0.0159,-0.04217 1.60489,-4.121546 1.62507,-4.172241 l 0.023,-0.05794 h 0.44749 0.44749 l 0.84585,2.111613 c 0.46522,1.161388 0.84796,2.116852 0.85055,2.123281 0.004,0.0093 -0.0887,0.01111 -0.45704,0.009 l -0.4618,-0.0026 -0.18592,-0.484399 -0.18593,-0.484399 -0.85288,0.0026 -0.85288,0.0026 -0.17585,0.484452 -0.17584,0.484426 h -0.44876 c -0.42357,0 -0.44844,-0.0026 -0.44265,-0.01614 z m 2.6729,-1.673542 c -0.003,-0.0064 -0.13496,-0.363246 -0.29456,-0.793062 -0.15957,-0.429816 -0.29292,-0.778193 -0.2963,-0.774197 -0.005,0.0053 -0.3456,0.938741 -0.57272,1.567259 -0.003,0.009 0.11697,0.01138 0.5819,0.01138 0.46506,0 0.5852,-0.0026 0.58168,-0.01138 z"
         id="A" /><path
         style="stroke:none;stroke-width:0.264583"
         d="m 243.61635,74.871836 v -2.119339 l 1.04767,0.0045 c 1.04455,0.0045 1.15731,0.0079 1.36678,0.03969 0.31785,0.04826 0.57875,0.210662 0.75094,0.467466 0.26178,0.390393 0.21953,0.899689 -0.103,1.241584 -0.0752,0.07972 -0.14721,0.13552 -0.24757,0.19177 l -0.0779,0.04366 0.0631,0.0209 c 0.15386,0.05075 0.31663,0.143987 0.42588,0.243999 0.12821,0.117316 0.23862,0.303504 0.28662,0.483314 0.022,0.08186 0.0243,0.108189 0.0251,0.26215 0,0.133508 -0.003,0.187933 -0.0161,0.247623 -0.0534,0.243126 -0.17126,0.469159 -0.32763,0.628544 -0.20013,0.203968 -0.44561,0.30742 -0.79624,0.335571 -0.17465,0.01402 -1.02536,0.02733 -1.76633,0.02762 h -0.63137 v -2.119339 z m 2.11238,1.397661 c 0.19571,-0.01614 0.30006,-0.05593 0.40346,-0.153458 0.10692,-0.100859 0.15121,-0.217382 0.15087,-0.396848 0,-0.276649 -0.15034,-0.470483 -0.41069,-0.531337 -0.15079,-0.03524 -0.23929,-0.03998 -0.82907,-0.04434 l -0.57587,-0.0042 v 0.56978 0.569807 h 0.57587 c 0.3167,-8e-5 0.62515,-0.0042 0.68543,-0.0093 v 0 z m -0.34084,-1.831075 c 0.30885,-0.0087 0.37068,-0.01773 0.48202,-0.07046 0.11647,-0.05524 0.19852,-0.147002 0.23728,-0.265377 0.0265,-0.08091 0.0265,-0.246115 -2.7e-4,-0.328348 -0.0499,-0.154278 -0.16449,-0.253629 -0.3406,-0.295354 -0.0549,-0.01296 -0.15099,-0.01561 -0.68143,-0.01905 l -0.61749,-0.0037 v 0.495591 0.495617 h 0.32145 c 0.17682,0 0.44635,-0.004 0.59899,-0.0082 v 0 z"
         id="B" /><path
         style="display:inline;stroke:none;stroke-width:0.264583"
         d="m 236.49961,67.784945 v -0.891461 l -0.77073,-1.218485 c -0.42392,-0.670137 -0.77076,-1.220179 -0.77076,-1.222269 0,-0.0026 0.22119,-0.0037 0.49152,-0.0037 l 0.49154,1.06e-4 0.49842,0.839153 c 0.37071,0.624072 0.50107,0.836374 0.50864,0.828331 0.006,-0.0058 0.2272,-0.38362 0.49241,-0.839232 l 0.48218,-0.828437 h 0.4848 0.48477 l -0.0132,0.0209 c -0.007,0.01138 -0.35669,0.563192 -0.77642,1.226185 l -0.76311,1.205415 v 0.887572 0.887571 h -0.42 -0.41998 v -0.891487 z"
         id="Y" /></g><path
       style="fill:#44484c;fill-opacity:1;stroke:#000000;stroke-width:0.264583px;stroke-linecap:butt;stroke-linejoin:miter;stroke-opacity:1"
       d="m 191.83897,40.180331 c -2.66361,0 -6.92952,2.444663 -10.28988,2.759557 -0.71165,0 -1.19269,0.71711 -1.19269,1.262848 v 2.38538 c 0,0.791848 1.14593,1.389081 1.14593,2.081363 h 8.95687 z"
       id="path3930" /><path
       style="fill:#ff5f53;fill-opacity:1;stroke:#000000;stroke-width:0.264583px;stroke-linecap:butt;stroke-linejoin:miter;stroke-opacity:1"
       d="m 188.684,62.683509 c 0,-5.087943 -6.22371,-8.710414 -8.3013,-13.411065 -0.12094,-0.451335 0.23601,-0.975651 0.67799,-0.975651 h 2.6293 c 4.06201,0 3.22524,-4.668785 5.93659,-6.746875 v 21.139517 z"
       id="path3928" /><path
       style="fill:#44484c;fill-opacity:1;stroke:#000000;stroke-width:0.264583px;stroke-linecap:butt;stroke-linejoin:miter;stroke-opacity:1"
       d="m 186.98074,54.481428 h 1.85209 V 49.52049 h -1.88516 c -0.24371,0 -0.35369,0.213125 -0.40515,0.405144 -0.37122,1.385437 -0.3524,2.876767 0,4.191992 0.0556,0.207356 0.19475,0.363802 0.43822,0.363802 z"
       id="path3924" /><path
       style="fill:none;stroke:#000000;stroke-width:0.264583px;stroke-linecap:butt;stroke-linejoin:miter;stroke-opacity:1"
       d="m 180.39923,46.246272 c 4.95552,0 5.85804,-1.554427 7.17683,-1.554427"
       id="path3932" /><path
       style="fill:#44484c;fill-opacity:1;stroke:#000000;stroke-width:0.264583px;stroke-linecap:butt;stroke-linejoin:miter;stroke-opacity:1"
       d="m 195.21826,39.022718 c 0,0 5.57545,-0.03565 5.5659,0 -0.01,0.03565 0,-1.110837 0,-1.110837 0,-0.29836 -0.22111,-0.491109 -0.49112,-0.491109 h -4.54858 c -0.322,0 -0.5262,0.287943 -0.5262,0.526187 z"
       id="path3926" /><path
       style="fill:#44484c;fill-opacity:1;stroke:#000000;stroke-width:0.264583px;stroke-linecap:butt;stroke-linejoin:miter;stroke-opacity:1"
       d="m 203.40338,46.681662 h 1.60197 c 0.13798,0 0.29231,0.164314 0.29231,0.292325 v 5.133245 c 0,0.161131 -0.16081,0.35664 -0.35663,0.35664 h -1.54932 z"
       id="path3942" /><path
       style="fill:#44484c;fill-opacity:1;stroke:#000000;stroke-width:0.264583px;stroke-linecap:butt;stroke-linejoin:miter;stroke-opacity:1"
       d="m 203.89818,62.268486 c 0.0467,0 1.14591,0 1.14591,0 0.47839,0 0.66651,-0.291941 0.66651,-0.666504 0.17793,-2.017953 0.16751,-4.469606 0,-6.53641 0,-0.347313 -0.3302,-0.687922 -0.68406,-0.684043 h -1.39731 v 7.886957 z"
       id="path3948" /><path
       id="path3950"
       d="m 203.89818,70.547158 c 0.0467,0 1.14591,0 1.14591,0 0.47839,0 0.66651,-0.291941 0.66651,-0.666504 0.17793,-2.017953 0.16751,-4.469606 0,-6.536409 0,-0.347314 -0.3302,-0.687922 -0.68406,-0.684044 h -1.39731 v 7.886957 z"
       style="fill:#44484c;fill-opacity:1;stroke:#000000;stroke-width:0.264583px;stroke-linecap:butt;stroke-linejoin:miter;stroke-opacity:1" /><path
       style="fill:#44484c;fill-opacity:1;stroke:#000000;stroke-width:0.264583px;stroke-linecap:butt;stroke-linejoin:miter;stroke-opacity:1"
       d="m 203.89818,78.82583 c 0.0467,0 1.14591,0 1.14591,0 0.47839,0 0.66651,-0.291941 0.66651,-0.666504 0.17793,-2.017953 0.16751,-4.469606 0,-6.536409 0,-0.347314 -0.3302,-0.687922 -0.68406,-0.684043 h -1.39731 v 7.886956 z"
       id="path3952" /><path
       style="fill:#44484c;fill-opacity:1;stroke:#000000;stroke-width:0.264583px;stroke-linecap:butt;stroke-linejoin:miter;stroke-opacity:1"
       d="m 203.71564,92.250695 c 0.7407,0.20618 2.12495,1.62934 2.44732,3.05063 0.42142,0 1.0056,-0.24751 1.0056,-0.76005 v -4.887686 c 0,-1.02938 3.3482,-0.77035 3.3482,0.89715 v 1.687006 c 1.44034,3.50493 1.46973,6.635122 0,10.056025 v 1.77734 c 0,1.5485 -3.31764,1.86732 -3.31764,0.88896 v -4.79444 c 0,-0.695263 -0.48628,-1.020763 -0.97997,-0.979953 -0.51675,1.247883 -1.1939,2.362123 -2.45327,2.991163 h -0.46773 v -9.930325 z"
       id="path3986" /><path
       style="fill:#999595;fill-opacity:1;stroke:#000000;stroke-width:0.264583px;stroke-linecap:butt;stroke-linejoin:miter;stroke-opacity:1"
       d="m 203.40145,122.33051 h 1.5875 c 0.5131,0 0.44132,-8.71471 0,-8.71471 h -1.5875 z"
       id="path3998" /><path
       style="fill:#ff5f53;fill-opacity:1;stroke:#000000;stroke-width:0.264583px;stroke-linecap:butt;stroke-linejoin:miter;stroke-opacity:1"
       d="m 194.34129,38.730393 h 5.71326 c 2.19093,0 3.68795,2.151269 3.68795,4.115951 V 145.23062 c 0,2.30569 -1.84389,4.04578 -4.0458,4.04578 h -5.16832 c -3.23868,0 -6.06869,-3.32049 -6.06869,-6.06868 V 44.623685 c 0,-2.970212 3.40577,-5.893292 5.8816,-5.893292 z"
       id="path3918" /><rect
       style="fill:#44484c;fill-opacity:1;stroke:#000000;stroke-width:0.264583;stroke-miterlimit:4;stroke-dasharray:none;stroke-opacity:1"
       id="rect3922"
       width="10.22559"
       height="93.491112"
       x="191.06221"
       y="44.664806"
       rx="1.1287988"
       ry="1.1287988" /><rect
       style="fill:#2e2f31;fill-opacity:1;stroke:#000000;stroke-width:0.264583;stroke-linecap:round;stroke-linejoin:round;stroke-miterlimit:4;stroke-dasharray:none;stroke-opacity:1"
       id="rect3940"
       width="7.9375"
       height="16.172655"
       x="192.17319"
       y="120.92493"
       rx="1.1287988"
       ry="1.1287988" /><path
       style="fill:#44484c;fill-opacity:1;stroke:#000000;stroke-width:1;stroke-linecap:round;stroke-linejoin:round;stroke-miterlimit:4;stroke-dasharray:none;stroke-opacity:1"
       id="path3934"
       d="m 76,-387.61176 -8.184578,-14.17611 16.369155,0 z"
       transform="matrix(0.29141287,0,0,0.29141287,173.97803,249.09703)" /><path
       transform="matrix(0.29141287,0,0,0.29141287,173.97803,244.15263)"
       d="m 76,-387.61176 -8.184578,-14.17611 16.369155,0 z"
       id="path3936"
       style="fill:#44484c;fill-opacity:1;stroke:#000000;stroke-width:1;stroke-linecap:round;stroke-linejoin:round;stroke-miterlimit:4;stroke-dasharray:none;stroke-opacity:1" /><path
       style="fill:#44484c;fill-opacity:1;stroke:#000000;stroke-width:1;stroke-linecap:round;stroke-linejoin:round;stroke-miterlimit:4;stroke-dasharray:none;stroke-opacity:1"
       id="path3938"
       d="m 76,-387.61176 -8.184578,-14.17611 16.369155,0 z"
       transform="matrix(0.29141287,0,0,0.29141287,173.97803,239.20823)" /><path
       style="fill:none;stroke:#000000;stroke-width:0.264583px;stroke-linecap:butt;stroke-linejoin:miter;stroke-opacity:1"
       d="m 203.75697,48.759813 h 1.45521"
       id="path3944" /><path
       style="fill:none;stroke:#000000;stroke-width:0.264583px;stroke-linecap:butt;stroke-linejoin:miter;stroke-opacity:1"
       d="m 203.74871,50.355582 h 1.49654"
       id="path3946" /><rect
       style="fill:#aaeeff;stroke:#000000;stroke-width:0.264583;stroke-linecap:round;stroke-linejoin:round;stroke-miterlimit:4;stroke-dasharray:none;stroke-opacity:1"
       id="rect3954"
       width="1.9513021"
       height="1.9513021"
       x="195.14975"
       y="79.881424"
       rx="0.53348637"
       ry="0.53348637" /><rect
       ry="0.53348637"
       rx="0.53348637"
       y="84.213974"
       x="195.14975"
       height="1.9513021"
       width="1.9513021"
       id="rect3956"
       style="fill:#aaeeff;stroke:#000000;stroke-width:0.264583;stroke-linecap:round;stroke-linejoin:round;stroke-miterlimit:4;stroke-dasharray:none;stroke-opacity:1" /><rect
       ry="0.53348637"
       rx="0.53348637"
       y="88.645752"
       x="195.14975"
       height="1.9513021"
       width="1.9513021"
       id="rect3958"
       style="fill:#aaeeff;stroke:#000000;stroke-width:0.264583;stroke-linecap:round;stroke-linejoin:round;stroke-miterlimit:4;stroke-dasharray:none;stroke-opacity:1" /><rect
       style="fill:#aaeeff;stroke:#000000;stroke-width:0.264583;stroke-linecap:round;stroke-linejoin:round;stroke-miterlimit:4;stroke-dasharray:none;stroke-opacity:1"
       id="rect3960"
       width="1.9513021"
       height="1.9513021"
       x="195.14975"
       y="92.978302"
       rx="0.53348637"
       ry="0.53348637" /><circle
       style="fill:#2e2f31;fill-opacity:1;stroke:#000000;stroke-width:0.264583;stroke-linecap:round;stroke-linejoin:round;stroke-miterlimit:4;stroke-dasharray:none;stroke-opacity:1"
       id="path3962"
       cx="196.10172"
       cy="100.48306"
       r="1.5743958" /><rect
       style="fill:#999595;fill-opacity:1;stroke:#000000;stroke-width:0.264583;stroke-linecap:round;stroke-linejoin:round;stroke-miterlimit:4;stroke-dasharray:none;stroke-opacity:1"
       id="rect3964"
       width="4.0018229"
       height="9.2934895"
       x="194.15756"
       y="108.258"
       rx="1.4264551"
       ry="1.3933822" /><rect
       ry="1.3933822"
       rx="1.4264551"
       y="63.58707"
       x="194.15756"
       height="9.2934895"
       width="4.0018229"
       id="rect3966"
       style="fill:#999595;fill-opacity:1;stroke:#000000;stroke-width:0.264583;stroke-linecap:round;stroke-linejoin:round;stroke-miterlimit:4;stroke-dasharray:none;stroke-opacity:1" /><g
       id="SingleRightTrigger1"><path
         style="stroke:#000000;stroke-width:0.00353806;stroke-linecap:round;stroke-linejoin:round;stroke-miterlimit:4;stroke-dasharray:none;stroke-opacity:1"
         d="m 196.12845,68.242846 h -1.14456 l 8e-5,-0.499748 c 5e-5,-0.27487 0.003,-0.541808 0.003,-0.593214 0.0122,-0.335912 0.0581,-0.482473 0.19028,-0.609404 0.14709,-0.141174 0.37312,-0.199747 0.59762,-0.154871 0.12509,0.025 0.23516,0.08775 0.31917,0.181964 0.0772,0.08655 0.13753,0.225682 0.16179,0.372968 0.005,0.03268 0.007,0.03609 0.0109,0.03008 0.003,-0.0038 0.0204,-0.03066 0.0398,-0.05985 0.081,-0.122563 0.15007,-0.192424 0.28789,-0.2912 0.08,-0.05732 0.1198,-0.08298 0.42137,-0.271735 l 0.25501,-0.1596 v 0.272667 c 0,0.215259 -3e-5,0.273531 -0.003,0.276746 -0.003,0.0024 -0.13737,0.09322 -0.29985,0.202152 -0.46937,0.314672 -0.5225,0.353915 -0.57814,0.426911 -0.0552,0.0724 -0.0689,0.130566 -0.0719,0.305628 l -0.003,0.110558 h 0.47808 0.4781 v 0.229982 0.22997 h -1.14456 z m -0.17875,-1.036653 c -0.004,-0.07511 -0.0116,-0.141507 -0.019,-0.170215 -0.0228,-0.08667 -0.0901,-0.154516 -0.17902,-0.180131 -0.0332,-0.0096 -0.11732,-0.01355 -0.15412,-0.0073 -0.0893,0.01511 -0.15145,0.06 -0.18907,0.136544 -0.0361,0.07341 -0.0386,0.107151 -0.0387,0.51921 l -8e-5,0.278622 h 0.29189 0.29192 l -3e-5,-0.255629 c 0,-0.140587 -0.003,-0.285073 -0.004,-0.321078 z"
         id="path3980" /><path
         style="stroke:#000000;stroke-width:0.00357862;stroke-linecap:round;stroke-linejoin:round;stroke-miterlimit:4;stroke-dasharray:none;stroke-opacity:1"
         d="m 197.31463,69.464205 c -0.0276,0.349896 -0.15028,0.57472 -0.39108,0.716672 -0.0966,0.05693 -0.25265,0.10728 -0.37471,0.120896 l -0.022,0.0024 -0.003,-0.01204 c -0.004,-0.02209 -0.0429,-0.436258 -0.0413,-0.437798 0,-7.93e-4 0.0175,-0.0049 0.0372,-0.0092 0.0196,-0.0042 0.055,-0.0141 0.0786,-0.02193 0.18298,-0.0608 0.28408,-0.175368 0.31713,-0.359391 0.0101,-0.05627 0.0111,-0.179504 0.003,-0.238916 -0.0124,-0.0793 -0.0329,-0.13956 -0.0635,-0.186923 -0.042,-0.065 -0.10097,-0.113795 -0.16415,-0.135983 -0.0357,-0.01254 -0.10745,-0.01617 -0.14301,-0.0072 -0.0698,0.01759 -0.11543,0.0597 -0.15713,0.144986 -0.0292,0.05981 -0.0497,0.128021 -0.11494,0.38399 -0.0594,0.233122 -0.0915,0.327528 -0.1501,0.442497 -0.056,0.109762 -0.13237,0.196009 -0.23,0.259654 -0.10385,0.06769 -0.22175,0.09919 -0.35163,0.09395 -0.11192,-0.0045 -0.21569,-0.03873 -0.31009,-0.102254 -0.0694,-0.04674 -0.11832,-0.09587 -0.16587,-0.166751 -0.0969,-0.14446 -0.14496,-0.335544 -0.14491,-0.575985 5e-5,-0.268025 0.054,-0.471233 0.16486,-0.621223 0.0287,-0.03879 0.0896,-0.09974 0.1284,-0.12841 0.10475,-0.07745 0.22252,-0.120354 0.36336,-0.132395 0.0217,-0.0019 0.0397,-0.0029 0.0403,-0.0024 0.003,0.0016 0.0217,0.461698 0.0204,0.463121 0,7.94e-4 -0.0153,0.0043 -0.0327,0.0081 -0.0982,0.0214 -0.17716,0.06442 -0.22135,0.120573 -0.0342,0.04344 -0.0573,0.09982 -0.0703,0.171505 -0.0103,0.0573 -0.0114,0.186582 -0.003,0.247142 0.0148,0.09486 0.0476,0.172292 0.0942,0.222626 0.0494,0.05334 0.13436,0.06876 0.20273,0.03678 0.0311,-0.01455 0.0677,-0.04974 0.0896,-0.08607 0.0406,-0.06726 0.0793,-0.183383 0.13163,-0.394364 0.0631,-0.254667 0.11104,-0.399426 0.16819,-0.508135 0.0925,-0.175927 0.24591,-0.293883 0.43061,-0.331026 0.0669,-0.01347 0.11663,-0.01733 0.19307,-0.01508 0.0537,0.0016 0.0776,0.004 0.11134,0.01109 0.18626,0.03933 0.34679,0.149262 0.4423,0.302906 0.0672,0.108156 0.11023,0.245999 0.13057,0.418557 0.006,0.04614 0.0101,0.261104 0.006,0.305972 v 0 z"
         id="path3982" /></g><g
       id="SingleLeftTrigger1"><path
         style="stroke:#000000;stroke-width:0.00353806;stroke-linecap:round;stroke-linejoin:round;stroke-miterlimit:4;stroke-dasharray:none;stroke-opacity:1"
         d="m 197.34244,114.04543 c -0.0161,0.26704 -0.0954,0.46815 -0.24006,0.60956 -0.10769,0.10529 -0.25516,0.17938 -0.42786,0.21496 -0.0395,0.008 -0.11107,0.0198 -0.11213,0.0183 0,-5.3e-4 -0.01,-0.0955 -0.0206,-0.21125 -0.0111,-0.11578 -0.0209,-0.21648 -0.022,-0.22378 -0.003,-0.0117 0,-0.0133 0.005,-0.0133 0.0124,0 0.0677,-0.0138 0.10834,-0.0269 0.19362,-0.0629 0.29713,-0.1901 0.32044,-0.39394 0.005,-0.0468 0.003,-0.16702 -0.005,-0.21064 -0.0201,-0.1152 -0.0652,-0.20032 -0.13653,-0.2574 -0.0557,-0.0446 -0.10123,-0.0607 -0.17163,-0.0609 -0.0502,0 -0.0782,0.006 -0.11145,0.0255 -0.023,0.0133 -0.0546,0.0446 -0.0729,0.0722 -0.0438,0.0659 -0.0652,0.1313 -0.14298,0.43634 -0.0486,0.19057 -0.0776,0.28142 -0.12168,0.38029 -0.0597,0.1339 -0.13859,0.23102 -0.24667,0.30356 -0.0596,0.04 -0.13629,0.0717 -0.20921,0.0865 -0.0347,0.007 -0.0501,0.008 -0.1211,0.008 -0.0704,-8e-5 -0.086,-0.001 -0.11591,-0.008 -0.17476,-0.0391 -0.32139,-0.1482 -0.4073,-0.3032 -0.0386,-0.0696 -0.0708,-0.15982 -0.0889,-0.24915 -0.0398,-0.19606 -0.0318,-0.45578 0.0196,-0.63905 0.0238,-0.0846 0.0644,-0.17267 0.10869,-0.23529 0.0304,-0.0431 0.10604,-0.11863 0.14946,-0.14939 0.0695,-0.0492 0.16082,-0.0887 0.24681,-0.10675 0.0435,-0.009 0.099,-0.0163 0.12628,-0.0163 h 0.0161 l 3e-5,0.0204 c 2e-5,0.0112 0.004,0.1087 0.009,0.2167 0.005,0.108 0.009,0.20197 0.009,0.20883 v 0.0125 l -0.0309,0.006 c -0.0694,0.0141 -0.13877,0.045 -0.1809,0.0803 -0.082,0.0689 -0.11723,0.17063 -0.11718,0.33883 3e-5,0.11077 0.0148,0.18678 0.0511,0.26075 0.042,0.0858 0.0874,0.12084 0.16159,0.12472 0.0552,0.003 0.0935,-0.0103 0.132,-0.0455 0.0617,-0.0564 0.10247,-0.15984 0.17213,-0.43654 0.0542,-0.21541 0.0786,-0.29731 0.12026,-0.40333 0.0739,-0.18834 0.17608,-0.30894 0.32345,-0.38197 0.0882,-0.0437 0.16936,-0.0629 0.28657,-0.0678 0.13917,-0.006 0.26699,0.0274 0.38915,0.10122 0.13658,0.0825 0.23426,0.21023 0.29001,0.37916 0.0486,0.14727 0.0699,0.34326 0.0582,0.53545 v 0 z"
         id="path3978" /><path
         style="stroke:#000000;stroke-width:0.00357862;stroke-linecap:round;stroke-linejoin:round;stroke-miterlimit:4;stroke-dasharray:none;stroke-opacity:1"
         d="m 196.15959,112.42202 h -1.14872 v -0.23261 -0.2326 h 0.95549 0.95549 v -0.58153 -0.58153 h 0.19326 0.19322 v 0.81413 0.81414 z"
         id="path3984" /></g><path
       style="fill:none;stroke:#000000;stroke-width:0.264583px;stroke-linecap:butt;stroke-linejoin:miter;stroke-opacity:1"
       d="m 207.15522,94.598865 v 5.126312"
       id="path3988" /><path
       style="fill:none;stroke:#000000;stroke-width:0.264583px;stroke-linecap:butt;stroke-linejoin:miter;stroke-opacity:1"
       d="m 206.14166,95.261155 v 4.070322"
       id="path3990" /><path
       style="fill:none;stroke:#000000;stroke-width:1px;stroke-linecap:butt;stroke-linejoin:miter;stroke-opacity:1;filter:url(#filter3994-6)"
       d="m 966.57659,655.39154 v 38"
       id="path3992"
       transform="matrix(0.26458333,0,0,0.26458333,-45.219666,-81.138444)" /><path
       id="path4136"
       d="m 228.83717,11.768909 h -1.50119 l -0.004,-0.958829 h -1.60551 c -0.42043,0 -0.55393,0.382418 -0.55393,0.959443 v 8.792554 c 0,0.41027 0.38793,0.732996 0.733,0.732996 h 1.08378 c 0.29528,0 0.31234,-0.319455 0.34277,-0.593693 v -0.583639 h 1.48016 z"
       style="fill:#44484c;fill-opacity:1;stroke:#000000;stroke-width:0.264583px;stroke-linecap:butt;stroke-linejoin:miter;stroke-opacity:1" /><path
       id="path4138"
       d="M 227.33503,20.10013 V 11.831901"
       style="fill:#44484c;fill-opacity:1;stroke:#000000;stroke-width:0.264583px;stroke-linecap:butt;stroke-linejoin:miter;stroke-opacity:1" /><path
       style="fill:#44484c;fill-opacity:1;stroke:#000000;stroke-width:0.264583px;stroke-linecap:butt;stroke-linejoin:miter;stroke-opacity:1"
       d="m 235.47461,6.5371895 v 1.852083 h -4.96093 v -1.885156 c 0,-0.243708 0.21312,-0.353695 0.40513,-0.405156 1.38543,-0.371211 2.87678,-0.352399 4.192,0 0.20736,0.05556 0.3638,0.194759 0.3638,0.438229 z"
       id="path4158" /><path
       style="fill:#44484c;fill-opacity:1;stroke:#000000;stroke-width:0.264583px;stroke-linecap:butt;stroke-linejoin:miter;stroke-opacity:1"
       d="m 240.25852,23.377177 c 0.20619,0.740701 1.62933,2.124948 3.05062,2.447317 0,0.421428 -0.24749,1.005601 -0.76004,1.005601 h -4.8877 c -1.02937,0 -0.77034,3.348197 0.89714,3.348197 h 1.68701 c 3.50494,1.440338 6.63515,1.469734 10.05602,0 h 1.77737 c 1.5485,0 1.86729,-3.317637 0.88895,-3.317637 h -4.79444 c -0.69527,0 -1.02076,-0.486278 -0.97996,-0.979964 1.24788,-0.516758 2.36212,-1.193906 2.99116,-2.45327 v -0.46773 h -9.93031 z"
       id="path4146" /><path
       style="fill:#44484c;fill-opacity:1;stroke:#000000;stroke-width:0.264583px;stroke-linecap:butt;stroke-linejoin:miter;stroke-opacity:1"
       d="m 240.77544,23.022239 c 0,0.04675 0,1.14591 0,1.14591 0,0.478393 -0.29195,0.666512 -0.66652,0.666512 -2.01795,0.177932 -4.4696,0.167508 -6.5364,0 -0.34731,0 -0.68791,-0.3302 -0.68405,-0.684054 V 22.75329 h 7.88697 z"
       id="path4154" /><path
       style="fill:none;stroke:#000000;stroke-width:0.264583px;stroke-linecap:butt;stroke-linejoin:miter;stroke-opacity:1"
       d="m 242.6067,26.81676 h 5.1263"
       id="path4148" /><path
       style="fill:#44484c;fill-opacity:1;stroke:#000000;stroke-width:0.264583px;stroke-linecap:butt;stroke-linejoin:miter;stroke-opacity:1"
       d="m 231.55516,22.329004 v 1.601972 c 0,0.137981 0.1643,0.292312 0.29231,0.292312 h 5.13323 c 0.16113,0 0.35666,-0.160814 0.35666,-0.356632 v -1.54932 z"
       id="path4142" /><path
       style="fill:none;stroke:#000000;stroke-width:0.264583px;stroke-linecap:butt;stroke-linejoin:miter;stroke-opacity:1"
       d="m 243.26897,25.803195 h 4.07033"
       id="path4150" /><path
       style="fill:#44484c;fill-opacity:1;stroke:#000000;stroke-width:0.264583px;stroke-linecap:butt;stroke-linejoin:miter;stroke-opacity:1"
       d="m 257.33277,23.022239 c 0,0.04675 0,1.14591 0,1.14591 0,0.478393 -0.29194,0.666512 -0.66649,0.666512 -2.01797,0.177932 -4.4696,0.167508 -6.53642,0 -0.34732,0 -0.68792,-0.3302 -0.68403,-0.684054 V 22.75329 h 7.88694 z"
       id="path4144" /><path
       transform="matrix(0,0.26458333,0.26458333,0,-36.395078,-244.13604)"
       style="fill:none;stroke:#000000;stroke-width:1px;stroke-linecap:butt;stroke-linejoin:miter;stroke-opacity:1;filter:url(#filter3994-6)"
       d="m 1036.7923,1045.6825 v 38"
       id="path4152" /><path
       id="path4160"
       d="m 249.05295,23.022239 c 0,0.04675 0,1.14591 0,1.14591 0,0.478393 -0.29194,0.666512 -0.66648,0.666512 -2.01798,0.177932 -4.46961,0.167508 -6.53643,0 -0.34732,0 -0.68792,-0.3302 -0.68403,-0.684054 V 22.75329 h 7.88694 z"
       style="fill:#44484c;fill-opacity:1;stroke:#000000;stroke-width:0.264583px;stroke-linecap:butt;stroke-linejoin:miter;stroke-opacity:1" /><path
       id="path4140"
       d="m 261.60682,23.187796 c 0.97078,0 2.84427,-1.929288 2.84427,-2.968281 v -6.81302 c -0.52062,-1.975089 -1.52,-4.1207005 -4.7625,-4.7624995 -0.56626,0 -0.85989,-0.533533 -0.85989,-0.859896 -3.06951,-4.0709055 -6.40247,-6.1659027 -9.82266,-7.6067706 h -7.24297 c -3.11539,1.3968147 -4.85232,3.4828691 -6.21771,5.7546866 v 1.256771 c 0,0.518822 -0.42971,1.058334 -0.99218,1.058334 h -6.01927 V 23.196078 Z"
       style="fill:#ff5f53;fill-opacity:1;stroke:#000000;stroke-width:0.264583px;stroke-linecap:round;stroke-linejoin:round;stroke-opacity:1" /><path
       id="path4166"
       d="m 260.58066,11.099794 h -25.87985 c 0.0135,-5.3886205 2.66343,-10.9675025 7.75962,-10.9675025 l 7.23943,0.086701 c 7.0875,1.2930743 8.54411,6.3837 10.8808,10.8808015 z"
       style="fill:#44484c;fill-opacity:1;stroke:#000000;stroke-width:0.264583px;stroke-linecap:butt;stroke-linejoin:miter;stroke-opacity:1" /><path
       id="path4168"
       d="m 262.70479,14.654479 h -28.22072 v 3.251237 c 0,1.098243 1.40179,2.731037 2.73105,2.731037 h 23.66899 c 1.445,0 2.51429,-1.396424 2.51429,-2.514288 0,-1.34669 0.11609,-3.467986 -0.69361,-3.467986 z"
       style="fill:#44484c;fill-opacity:1;stroke:#000000;stroke-width:0.264583px;stroke-linecap:butt;stroke-linejoin:miter;stroke-opacity:1" /><path
       style="fill-opacity:1;stroke:#000000;stroke-width:0.00490037;stroke-linecap:round;stroke-linejoin:round;stroke-miterlimit:4;stroke-dasharray:none;stroke-opacity:1"
       d="m 244.14165,17.660905 v -1.210392 l 0.55007,6.6e-5 c 0.30252,3.7e-5 0.59417,0.0024 0.64807,0.0049 0.23492,0.01161 0.38338,0.0444 0.48519,0.107175 0.15637,0.09641 0.26062,0.266599 0.28702,0.468542 0.008,0.06163 0.003,0.197848 -0.009,0.254818 -0.0416,0.191362 -0.15044,0.334386 -0.32104,0.421952 -0.0654,0.03355 -0.16529,0.06695 -0.24334,0.08133 -0.0324,0.006 -0.0588,0.01204 -0.0587,0.01349 8e-5,0.0016 0.0175,0.01312 0.0385,0.0259 0.0679,0.04108 0.1387,0.09714 0.19921,0.157761 0.0982,0.09839 0.16031,0.1876 0.42134,0.605501 0.0884,0.141499 0.16391,0.262231 0.16783,0.268296 l 0.007,0.01103 h -0.28882 -0.28884 l -0.19288,-0.287896 c -0.36298,-0.541718 -0.41074,-0.605218 -0.49914,-0.663437 -0.0681,-0.04484 -0.12798,-0.05709 -0.3008,-0.06151 l -0.11637,-0.003 v 0.50791 0.507905 h -0.24257 -0.24257 v -1.210392 z m 1.19824,-0.197742 c 0.10322,-0.01349 0.15547,-0.03687 0.20572,-0.09207 0.0507,-0.0557 0.0711,-0.115819 0.0711,-0.210029 0,-0.130434 -0.0482,-0.216286 -0.14822,-0.264017 -0.0777,-0.03708 -0.0652,-0.03607 -0.47538,-0.03847 l -0.36629,-0.0021 v 0.309613 0.309613 l 0.3271,-0.0024 c 0.25813,-0.0019 0.33952,-0.004 0.386,-0.01011 v 0 z"
       id="RightShoulder" /><g
       id="RightTrigger"><path
         style="fill-opacity:1;stroke-width:0.00490037;stroke-linecap:round;stroke-linejoin:round;stroke-miterlimit:4;stroke-dasharray:none;stroke-opacity:1"
         d="m 245.17564,6.1446855 v -1.208246 l 0.62601,0.00212 c 0.66757,0.00212 0.68236,0.00273 0.82087,0.027509 0.0828,0.014843 0.13729,0.031819 0.19719,0.061523 0.0639,0.03167 0.10575,0.06235 0.15301,0.112101 0.0781,0.08226 0.1333,0.187278 0.16198,0.308377 0.0119,0.0507 0.013,0.06345 0.0132,0.162814 8e-5,0.08425 -0.003,0.117107 -0.008,0.150355 -0.0561,0.275579 -0.24551,0.44872 -0.56002,0.512053 -0.0592,0.01193 -0.066,0.01426 -0.0579,0.02011 0.005,0.0036 0.0317,0.02135 0.0591,0.03937 0.14401,0.09456 0.23318,0.189458 0.36915,0.392957 0.0495,0.07413 0.38581,0.60892 0.3906,0.621162 0.003,0.0049 -0.0559,0.0059 -0.2858,0.0049 l -0.28824,-0.0013 -0.21582,-0.321297 c -0.30739,-0.457573 -0.34192,-0.505973 -0.40719,-0.570571 -0.09,-0.08909 -0.15473,-0.109487 -0.36116,-0.113864 l -0.12173,-0.0027 v 0.505378 0.505375 h -0.24257 -0.24257 v -1.208244 z m 1.17118,-0.193157 c 0.0797,-0.0088 0.11668,-0.01786 0.15986,-0.03914 0.0694,-0.03421 0.11798,-0.09792 0.13692,-0.179525 0.0103,-0.04405 0.0101,-0.136223 -2.6e-4,-0.175921 -0.0313,-0.12047 -0.12489,-0.194789 -0.26226,-0.208325 -0.0257,-0.0026 -0.19817,-0.0046 -0.38346,-0.0047 l -0.33689,-1.7e-4 v 0.309306 0.309304 l 0.31729,-0.0026 c 0.18902,-0.0016 0.33811,-0.0049 0.36875,-0.0083 v 0 z"
         id="path4234" /><path
         style="fill-opacity:1;stroke-width:0.00490037;stroke-linecap:round;stroke-linejoin:round;stroke-miterlimit:4;stroke-dasharray:none;stroke-opacity:1"
         d="m 242.89694,7.1346265 v -0.218302 l 0.63461,-0.783873 c 0.34904,-0.431131 0.6346,-0.784953 0.6346,-0.786276 0,-0.0013 -0.2536,-0.0024 -0.56354,-0.0024 h -0.56353 V 5.1404305 4.9370639 h 0.8845 0.88453 v 0.1874836 0.187481 l -0.66442,0.818322 -0.6644,0.818319 0.6889,0.0013 0.68892,0.0013 v 0.200898 0.200898 h -0.98007 -0.9801 v -0.2183 z"
         id="path4236" /></g></g></svg>
